<?xml version="1.0" encoding="iso-8859-1"?>
<!-- Generator: Adobe Illustrator 19.0.0, SVG Export Plug-In . SVG Version: 6.00 Build 0)  -->
<svg version="1.1" id="Capa_1" xmlns="http://www.w3.org/2000/svg" xmlns:xlink="http://www.w3.org/1999/xlink" x="0px" y="0px"
	 viewBox="0 0 497.371 497.371" style="enable-background:new 0 0 497.371 497.371;" xml:space="preserve">
<circle style="fill:#F6E272;" cx="166.766" cy="196.023" r="92.16"/>
<path style="fill:#FFCA19;" d="M247.223,153.6c-13.166-7.314-29.257-11.703-45.349-11.703c-51.2,0-92.16,40.96-92.16,92.16
	c0,16.091,4.389,30.72,10.24,43.886c-27.794-16.091-46.811-45.349-46.811-78.994c0-51.2,40.96-92.16,92.16-92.16
	C201.874,105.326,231.131,124.343,247.223,153.6z"/>
<path style="fill:#F58570;" d="M241.371,308.663h-8.777l-68.754,46.811l-68.754-46.811c-45.349,0-80.457,32.183-80.457,71.68V460.8
	c0,8.777,7.314,14.629,16.091,14.629h275.017c8.777,0,16.091-7.314,16.091-14.629v-78.994
	C321.829,340.846,286.72,308.663,241.371,308.663z"/>
<g>
	<path style="fill:#F1594C;" d="M321.829,380.343c-40.96-24.869-106.789-30.72-172.617-8.777
		c-61.44,20.48-109.714,58.514-130.194,100.937c-2.926-2.926-4.389-5.851-4.389-10.24v-78.994c0-39.497,36.571-71.68,80.457-71.68
		L163.84,358.4l68.754-46.811h8.777C285.257,308.663,321.829,340.846,321.829,380.343z"/>
	<path style="fill:#F1594C;" d="M166.766,354.011l-2.926,1.463l-55.589-38.034c1.463,0,2.926,0,4.389,0L166.766,354.011z"/>
</g>
<path d="M305.737,490.057H30.72C13.166,490.057,0,476.891,0,460.8v-78.994c0-48.274,42.423-86.309,95.086-86.309l0,0
	c2.926,0,5.851,1.463,8.777,2.926l59.977,40.96l59.977-40.96c2.926-1.463,5.851-2.926,8.777-2.926h8.777
	c52.663,0,95.086,39.497,95.086,86.309V460.8C336.457,476.891,323.291,490.057,305.737,490.057z M29.257,460.8c0,0,1.463,0,2.926,0
	H307.2c1.463,0,2.926,0,2.926-1.463v-78.994c0-32.183-29.257-58.514-67.291-58.514h-4.389l-64.366,43.886
	c-4.389,2.926-11.703,2.926-16.091,0l-64.366-43.886c-35.109,1.463-62.903,27.794-62.903,58.514L29.257,460.8L29.257,460.8z"/>
<path d="M166.766,301.349c-58.514,0-105.326-46.811-105.326-105.326S108.251,90.697,166.766,90.697s105.326,46.811,105.326,105.326
	S225.28,301.349,166.766,301.349z M166.766,118.491c-42.423,0-77.531,35.109-77.531,77.531s35.109,77.531,77.531,77.531
	s77.531-35.109,77.531-77.531C242.834,153.6,209.189,118.491,166.766,118.491z"/>
<path style="fill:#A5C3D1;" d="M482.743,42.423v83.383c0,11.703-8.777,20.48-20.48,20.48H368.64l-51.2,51.2v-51.2h-16.091
	c-11.703,0-20.48-8.777-20.48-20.48V42.423c0-11.703,8.777-20.48,20.48-20.48h160.914C473.966,21.943,482.743,30.72,482.743,42.423z
	"/>
<path d="M311.589,210.651c-5.851-2.926-8.777-7.314-8.777-13.166v-36.571h-1.463c-19.017,0-35.109-16.091-35.109-35.109V42.423
	c0-19.017,16.091-35.109,35.109-35.109h160.914c19.017,0,35.109,16.091,35.109,35.109v83.383c0,19.017-16.091,35.109-35.109,35.109
	h-87.771l-46.811,46.811C323.291,212.114,317.44,213.577,311.589,210.651z M302.811,36.571c-2.926,0-5.851,2.926-5.851,5.851v83.383
	c0,2.926,2.926,5.851,5.851,5.851h16.091c7.314,0,14.629,5.851,14.629,14.629v16.091l26.331-26.331
	c2.926-2.926,5.851-4.389,10.24-4.389h93.623c2.926,0,5.851-2.926,5.851-5.851V42.423c0-2.926-2.926-5.851-5.851-5.851H302.811z"/>
<g>
</g>
<g>
</g>
<g>
</g>
<g>
</g>
<g>
</g>
<g>
</g>
<g>
</g>
<g>
</g>
<g>
</g>
<g>
</g>
<g>
</g>
<g>
</g>
<g>
</g>
<g>
</g>
<g>
</g>
</svg>
