<svg id="Capa_1" enable-background="new 0 0 512 512" height="512" viewBox="0 0 512 512" width="512" xmlns="http://www.w3.org/2000/svg"><g><path d="m451.741 512h-391.482c-16.815 0-30.446-13.631-30.446-30.446v-42.353l452.374-82.204v124.557c0 16.815-13.631 30.446-30.446 30.446z" fill="#cdbfba"/><path d="m368.914 481.554h-308.604c-16.843 0-30.497-13.654-30.497-30.497v-378.165c0-16.843 13.654-30.497 30.497-30.497h391.38c16.843 0 30.497 13.654 30.497 30.497v295.389c0 8.088-18.436 15.845-24.155 21.565l-67.553 67.553c-5.719 5.719-13.476 24.155-21.565 24.155z" fill="#f9f3f1"/><path d="m368.772 481.554c8.088 0 15.845-3.213 21.565-8.932l82.918-82.918c5.719-5.719 8.932-13.476 8.932-21.565v-12.355c0 13.8-11.187 24.987-24.987 24.987h-50.808c-13.8 0-24.987 11.187-24.987 24.987v50.808c0 13.8-11.187 24.987-24.988 24.987h12.355z" fill="#efe2dd"/><path d="m482.183 72.837v78.327h-452.366v-78.327c0-16.806 13.63-30.446 30.446-30.446h391.474c16.817 0 30.446 13.64 30.446 30.446z" fill="#fece85"/><g><g><path d="m115.999 95.532c-5.807 0-10.737-.003-14.939-.003-12.767 0-23.149-10.382-23.149-23.139v-29.999h15.223v29.999c0 4.364 3.552 7.916 7.926 7.916 4.202 0 19.141 15.226 14.939 15.226z" fill="#fdb441"/></g><g><path d="m392.506 95.532s-10.734-.003-14.946-.003c-12.757 0-23.139-10.382-23.139-23.139v-29.999h15.223v29.999c0 4.364 3.552 7.916 7.916 7.916 4.212 0 14.946 11.025 14.946 15.226z" fill="#fdb441"/></g></g><g><g><path d="m127.416 42.395v-19.249c0-4.369-3.554-7.923-7.923-7.923h-3.495c-4.369 0-7.923 3.554-7.923 7.923v49.241c0 4.369 3.555 7.923 7.923 7.923 4.204 0 7.611 3.408 7.611 7.611s-3.408 7.611-7.611 7.611c-12.763 0-23.146-10.383-23.146-23.146v-49.24c.001-12.763 10.384-23.146 23.147-23.146h3.495c12.763 0 23.146 10.383 23.146 23.146v19.249z" fill="#554e56"/></g><g><path d="m403.924 42.395v-19.249c0-4.369-3.555-7.923-7.923-7.923h-3.495c-4.369 0-7.923 3.554-7.923 7.923v49.241c0 4.369 3.554 7.923 7.923 7.923 4.204 0 7.612 3.408 7.612 7.611s-3.408 7.611-7.612 7.611c-12.763 0-23.146-10.383-23.146-23.146v-49.24c.001-12.763 10.384-23.146 23.146-23.146h3.495c12.763 0 23.146 10.383 23.146 23.146v19.249z" fill="#554e56"/></g></g><g fill="#766e6e"><path d="m331.833 233.042h-29.679c-4.204 0-7.611 3.408-7.611 7.611 0 4.204 3.408 7.612 7.611 7.612h22.068v131.204c0 4.204 3.408 7.612 7.612 7.612s7.611-3.408 7.611-7.612v-138.815c-.001-4.204-3.409-7.612-7.612-7.612z"/><path d="m258.841 275.889c0-23.783-19.354-43.132-43.143-43.132-20.57 0-38.373 14.627-42.333 34.779-.81 4.125 1.877 8.126 6.001 8.936 4.124.809 8.125-1.877 8.936-6.001 2.56-13.032 14.081-22.491 27.395-22.491 15.395 0 27.92 12.52 27.92 27.909s-12.525 27.909-27.92 27.909c-4.204 0-7.611 3.408-7.611 7.611 0 4.204 3.408 7.612 7.611 7.612 15.395 0 27.92 12.52 27.92 27.909s-12.525 27.909-27.92 27.909c-13.852 0-25.739-10.321-27.649-24.006-.179-1.283-.27-2.596-.27-3.902 0-4.204-3.408-7.611-7.611-7.611-4.204 0-7.611 3.408-7.611 7.611 0 2.007.14 4.028.416 6.006 2.954 21.165 21.323 37.125 42.726 37.125 23.789 0 43.143-19.349 43.143-43.132 0-14.719-7.418-27.734-18.707-35.52 11.289-7.787 18.707-20.802 18.707-35.521z"/></g></g></svg>