<svg height="512pt" viewBox="0 -16 512.06719 512" width="512pt" xmlns="http://www.w3.org/2000/svg"><path d="m411.828125 239.617188 37.992187-52.929688c7.488282-10.625 8.984376-24.085938 3.96875-36.03125-4.96875-11.863281-15.550781-20.226562-28.246093-22.292969l-63.804688-10.261719-3.863281-23.277343.425781-.425781-.957031-2.707032-6.273438-37.761718c-2.089843-12.777344-10.496093-23.339844-22.484374-28.308594-6.039063-2.519532-12.4375-3.351563-18.667969-2.625-7.296875.191406-14.464844 2.285156-20.652344 6.71875l-50.707031 36.695312-51.222656-36.800781c-6.1875-4.371094-13.355469-6.421875-20.605469-6.613281-6.273438-.726563-12.695313.105468-18.734375 2.644531-11.882813 4.972656-20.222656 15.554687-22.3125 28.246094l-10.261719 63.808593-64.171875 10.644532c-12.777344 2.113281-23.335938 10.519531-28.308594 22.484375-4.992187 11.992187-3.433594 25.453125 4.117188 35.992187l37.886718 52.351563-37.992187 52.925781c-7.488281 10.625-8.980469 24.109375-3.988281 36.035156 4.992187 11.882813 15.550781 20.203125 28.242187 22.292969l63.808594 10.261719 10.667969 64.167968c2.070312 12.738282 10.429687 23.296876 22.292968 28.289063 6.039063 2.539063 12.480469 3.371094 18.730469 2.644531 7.273438-.191406 14.464844-2.28125 20.734375-6.699218l50.605469-36.328126.40625-.148437 50.8125 36.476563c6.464844 4.609374 13.976563 6.976562 21.613281 6.976562 4.839844 0 9.683594-.9375 14.355469-2.878906 11.96875-4.972656 20.394531-15.550782 22.484375-28.289063l10.261719-63.808593 23.277343-3.859376 3.753907 3.753907 20.542969-7.230469 19.925781-3.328125c12.777343-2.089844 23.359375-10.496094 28.332031-22.488281 4.992188-12.007813 3.433594-25.425782-4.117188-35.964844zm0 0" fill="#ffc107"/><path d="m324.082031 480.0625c-7.550781 0-14.996093-2.347656-21.375-6.910156l-59.796875-42.921875c-1.558594-1.089844-4.140625-1.027344-5.996094.191406l-59.519531 42.730469c-10.664062 7.488281-24 8.960937-35.773437 4.011718-11.734375-4.910156-19.992188-15.382812-22.0625-27.96875l-12.074219-72.683593c-.339844-2.003907-1.917969-3.585938-3.945313-3.925781l-72.703124-12.074219c-12.566407-2.070313-23.019532-10.304688-27.949219-22.058594-4.949219-11.820313-3.476563-25.132813 3.949219-35.648437l42.984374-59.925782c1.066407-1.558594 1.066407-4.136718-.191406-5.992187l-42.664062-59.5c-7.488282-10.410157-8.984375-23.722657-4.078125-35.585938 4.910156-11.859375 15.382812-20.160156 28.011719-22.226562l72.683593-12.074219c2.003907-.34375 3.582031-1.921875 3.925781-3.925781l12.074219-72.707031c2.070313-12.585938 10.304688-23.039063 22.058594-27.945313 11.796875-4.949219 25.128906-3.476563 35.648437 3.945313l59.902344 43.007812c1.707032 1.238281 4.03125 1.238281 5.738282-.019531l59.757812-42.902344c10.429688-7.445313 23.722656-9 35.582031-4.050781 11.863281 4.90625 20.160157 15.378906 22.25 27.988281l4.054688 24.425781c1.449219 8.703125-4.4375 16.960938-13.164063 18.410156-8.679687 1.367188-16.957031-4.4375-18.410156-13.160156l-4.054688-24.449218c-.359374-2.304688-1.980468-3.308594-2.921874-3.667969-.9375-.363281-2.773438-.855469-4.671876.488281l-59.773437 42.921875c-12.886719 9.21875-30.144531 9.195313-43.007813.023437l-59.839843-42.945312c-1.902344-1.34375-3.800781-.9375-4.714844-.488281-1.109375.445312-2.496094 1.449219-2.859375 3.625l-12.097656 72.746093c-2.582032 15.511719-14.71875 27.667969-30.230469 30.25l-72.722656 12.074219c-2.285157.386719-3.265625 1.984375-3.648438 2.925781-.40625.9375-.855469 2.792969.488281 4.671876l42.070313 58.515624c9.75 14.230469 9.75 31.316407 1.046875 43.988282l-43.117188 60.074218c-1.34375 1.921876-.894531 3.800782-.511718 4.738282.472656 1.109375 1.472656 2.496094 3.648437 2.859375l72.746094 12.074219c15.511719 2.582031 27.648437 14.742187 30.230469 30.25l12.074218 72.703124c.363282 2.21875 1.773438 3.199219 2.859376 3.671876.917968.382812 2.796874.832031 4.84375-.578126l59.667968-42.835937c12.992188-8.898437 30.058594-8.898437 42.753906-.191406l60.074219 43.113281c1.875 1.34375 3.710938.875 4.671875.492188.917969-.386719 2.558594-1.367188 2.921875-3.648438l12.097657-72.726562c2.578124-15.507813 14.71875-27.667969 30.226562-30.25l72.726562-12.074219c2.199219-.363281 3.199219-1.75 3.667969-2.859375.386719-.9375.855469-2.816406-.574219-4.863282l-42.835937-59.671874c-5.144531-7.1875-3.523437-17.191407 3.667969-22.335938 7.1875-5.097656 17.195312-3.519531 22.335937 3.671875l42.921875 59.796875c7.488282 10.644531 8.960938 23.957031 4.011719 35.773438-4.929687 11.757812-15.382813 20.011718-27.96875 22.058593l-72.683594 12.078125c-2.003906.339844-3.582031 1.917969-3.925781 3.921875l-12.074219 72.707031c-2.066406 12.605469-10.386719 23.058594-22.226562 27.988282-4.609375 1.941406-9.429688 2.878906-14.210938 2.878906zm0 0"/><path d="m261.382812 298.707031c-4.09375 0-8.191406-1.554687-11.304687-4.691406l-96-96c-6.25-6.25-6.25-16.382813 0-22.636719 6.25-6.25 16.382813-6.25 22.632813 0l84.695312 84.695313 223.339844-223.339844c6.25-6.25 16.382812-6.25 22.632812 0s6.25 16.386719 0 22.636719l-234.667968 234.664062c-3.132813 3.117188-7.230469 4.671875-11.328126 4.671875zm0 0"/></svg>