<?xml version="1.0" encoding="iso-8859-1"?>
<!-- Generator: Adobe Illustrator 19.0.0, SVG Export Plug-In . SVG Version: 6.00 Build 0)  -->
<svg version="1.1" id="Capa_1" xmlns="http://www.w3.org/2000/svg" xmlns:xlink="http://www.w3.org/1999/xlink" x="0px" y="0px"
	 viewBox="0 0 511.998 511.998" style="enable-background:new 0 0 511.998 511.998;" xml:space="preserve">
<path style="fill:#34495E;" d="M503.916,397.661c0,16.188-13.122,29.311-29.309,29.311H37.393
	c-16.188,0-29.309-13.124-29.309-29.311V114.336c0-16.188,13.122-29.31,29.309-29.31h437.212c16.188,0,29.309,13.123,29.309,29.31
	v283.326L503.916,397.661L503.916,397.661z"/>
<g>
	<path style="fill:#202121;" d="M76.049,239.281c-4.201-4.201-9.805-5.601-18.209-5.601h-3.5v45.517h4.202
		c8.404,0,14.006-2.099,18.209-5.599c4.902-4.206,7.703-11.206,7.001-17.507C83.751,249.788,80.951,243.483,76.049,239.281z"/>
	<path style="fill:#202121;" d="M442.296,232.28h-4.201v21.006h4.201c8.403,0,13.307-3.499,13.307-10.499
		C455.602,235.78,450.699,232.28,442.296,232.28z"/>
	<path style="fill:#202121;" d="M488.11,280.655l-10.913-14.435c5.509-6.241,8.58-14.542,8.58-24.135
		c0-21.819-16.346-36.479-40.677-36.479h-20.31c-1.582,0-3.106,0.237-4.552,0.661c-1.445-0.424-2.97-0.661-4.552-0.661h-38.514
		c-0.957,0-1.888,0.099-2.8,0.259c-0.908-0.158-1.835-0.258-2.787-0.259c-0.001,0-0.002,0-0.002,0c-0.003,0-0.007,0-0.01,0h-0.005
		h-14.704c-6.502,0-12.371,3.894-14.898,9.885l-3.049,7.231c-0.026,0.065-0.053,0.127-0.079,0.192l-0.642,1.578l-3.405-8.644
		c-2.435-6.18-8.401-10.242-15.043-10.242h-14.704c-3.61,0-7.058,1.209-9.845,3.35c-7.198-3.612-15.213-5.536-23.552-5.536h-0.054
		c-0.1-0.001-0.2-0.002-0.3-0.002c-11.178,0-21.78,3.414-30.617,9.722c-1.443-1.821-3.28-3.346-5.435-4.424
		c-8.172-4.086-15.584-5.908-24.036-5.908c-0.384,0-0.769,0.014-1.151,0.041c-11.115,0.793-21.929,5.009-30.775,11.947
		c-0.444,0.259-0.877,0.544-1.301,0.848c-8.528-7.021-18.795-10.734-29.796-10.734c-7.054,0-13.83,1.799-19.701,5.14
		c-2.898-2.748-6.803-4.443-11.111-4.443h-13.307c-5.806,0-10.881,3.07-13.733,7.665c-8.437-5.036-18.52-7.665-29.686-7.665h-19.61
		c-8.929,0-16.168,7.239-16.168,16.168v68.631c0,8.929,7.239,16.168,16.168,16.168h19.609c11.358,0,21.099-2.561,29.613-7.783
		c2.837,4.661,7.951,7.785,13.806,7.785h13.306c3.097,0,5.979-0.886,8.438-2.395c6.243,3.45,13.247,5.193,20.973,5.193
		c10.913,0,20.933-3.761,28.215-10.589c0.88-0.825,1.707-1.69,2.493-2.588c9.067,7.385,20.776,11.775,33.717,11.775
		c0.113,0,0.227-0.001,0.341-0.003c0.121,0.002,0.24,0.003,0.359,0.003c9.519,0,17.161-2.828,23.38-5.596
		c2.029-0.902,3.798-2.198,5.255-3.762c8.654,6.264,19.276,9.969,30.752,9.969c14.142,0,27.374-5.443,37.257-15.327
		c2.007-2.007,3.82-4.157,5.453-6.42l4.77,11.749c2.475,6.098,8.4,10.087,14.981,10.087h7.703c6.482,0,12.337-3.871,14.876-9.835
		L361,287.865v2.541c0,8.929,7.239,16.168,16.168,16.168h37.818h0.696c1.582,0,3.108-0.237,4.552-0.661
		c1.445,0.424,2.97,0.661,4.552,0.661h13.306c4.01,0,7.678-1.459,10.504-3.876c2.894,2.473,6.607,3.876,10.503,3.876h16.109
		c6.135,0,11.743-3.473,14.475-8.965C492.42,292.116,491.81,285.549,488.11,280.655z M218.767,258.23
		c-0.776,0.541-1.512,1.154-2.197,1.84c-2.583,2.586-3.711,2.898-4.331,2.945c-5.714-0.194-6.576-4.841-6.576-7.623
		c0-3.572,0.6-5.276,1.3-6.356c1.044-0.679,2.762-1.285,4.24-1.285c1.45,0,2.407,0,5.369,2.963c0.702,0.702,1.458,1.327,2.256,1.878
		c-0.071,1.132-0.12,2.267-0.12,3.412C218.71,256.749,218.736,257.49,218.767,258.23z M112.613,267.388
		c0.814-3.491,1.25-7.074,1.296-10.683c0.96,1.837,2.105,3.567,3.46,5.185v0.743L112.613,267.388z M115.905,221.775
		c-3.016,4.605-4.869,9.826-5.424,15.361c-1.606-4.171-3.754-8.066-6.417-11.595v-3.765L115.905,221.775L115.905,221.775z
		 M60.645,290.406h-19.61v-68.631h19.609c11.375,0,20.76,3.615,27.25,9.829v48.583c-0.869,0.888-1.784,1.728-2.743,2.513
		C78.849,287.602,71.148,290.406,60.645,290.406z M104.063,286.003c1.021-1.399,1.97-2.847,2.843-4.34
		c0.285,2.605,1.191,5.167,2.769,7.445c0.309,0.447,0.632,0.867,0.949,1.299h-6.561V286.003z M146.779,293.204
		c-4.912,0-9.297-1.055-13.242-3.253V274.78c3.069,3.649,7.582,5.821,12.541,5.821c6.306,0,10.506-4.203,10.506-9.807
		c0-2.798-1.404-5.602-4.201-7c-1.404-1.401-3.505-2.103-9.106-4.201c-4.085-1.589-7.277-3.108-9.74-4.764v-28.696
		c3.875-3.161,9.017-5.055,14.643-5.055c7.155,0,13.702,2.418,19.088,6.692c-1.837,2.765-3.391,5.654-4.652,8.639l-1.134,1.475
		c-3.501-4.202-7.001-5.603-11.204-5.603c-5.603,0-9.806,3.5-9.806,7.703c0,3.5,2.103,5.603,10.505,8.403
		c3.029,1.102,5.619,2.177,7.835,3.283c-0.128,1.465-0.196,2.939-0.196,4.424c0,10.317,2.917,19.832,7.982,27.829
		C162.478,289.719,155.436,293.204,146.779,293.204z M211.904,291.803c-0.136,0-0.271-0.008-0.406-0.01
		c-0.098,0.001-0.195,0.01-0.293,0.01c-10.181,0-19.305-3.873-25.876-10.294c0.932-3.41,1.424-7.003,1.424-10.715
		c0-12.128-3.65-20.286-9.948-26.272c0.01-0.027,0.02-0.053,0.03-0.079l4.466-5.803c1.566-2.036,2.564-4.334,3.034-6.703
		c0.966-1.125,1.984-2.188,3.061-3.156l0.153,0.153c6.437-5.648,14.754-9.322,23.654-9.958c6.302,0,11.207,1.402,16.805,4.201v2.807
		c-1.982,2.863-3.666,5.903-5.031,9.086c-3.718-2.479-7.412-3.488-11.775-3.488c-5.838,0-11.989,2.417-15.93,6.158
		c-4.204,4.906-5.778,10.647-5.778,17.653c0,13.917,9.689,23.678,22.871,23.797c3.575-0.075,6.88-1.039,10.281-3.251
		c1.593,3.873,3.637,7.513,6.064,10.86v0.805C222.412,290.406,217.506,291.803,211.904,291.803z M271.291,292.413
		c-10.401,0-19.776-4.368-26.412-11.361v-9.556c0-6.538-3.939-12.435-9.98-14.936c-0.002-0.001-0.004-0.002-0.008-0.002
		c-0.003-0.185-0.014-0.369-0.014-0.555c0-0.714,0.025-1.421,0.064-2.123c5.615-2.667,9.235-8.332,9.235-14.596v-7.739
		c6.636-7.366,16.275-11.957,27.113-11.957c0.045,0,0.089,0.003,0.134,0.003c0.073,0,0.147-0.001,0.22-0.001
		c6.001,0,11.998,1.472,17.382,4.4c0.181,1.313,0.524,2.612,1.034,3.867l15.946,39.285
		C301.367,281.893,287.705,292.413,271.291,292.413z M341.454,292.503h-7.703l-10.796-26.598c0.603-3.228,0.921-6.54,0.921-9.904
		c0-0.138-0.002-0.275-0.005-0.411c-0.011-12.577-4.381-24.42-12.376-33.816h8.251l18.209,46.221l15.859-38.991l3.049-7.231h4.139
		v24.814L341.454,292.503z M377.17,290.406v-37.818v-2.699l9.101-21.377c0.941-2.051,1.465-4.333,1.465-6.737h20.884v11.906h-17.445
		v14.705h17.445v11.91h-17.445v6.3v12.603h12.604h4.84v11.207H377.17z M459.102,290.406l-18.904-27.314h-2.103v27.314h-6.241
		v-11.207c0-3.746-1.273-7.193-3.41-9.934c1.714-2.566,2.714-5.651,2.714-8.969v-11.91c0-2.379-0.514-4.638-1.437-6.671
		c1.358-2.366,2.133-5.109,2.133-8.032v-11.906H445.1c15.404,0,24.508,7.707,24.508,20.311c0,10.502-5.604,17.507-16.105,19.605
		l21.709,28.715h-16.11V290.406z"/>
</g>
<g style="opacity:0.15;">
	<path style="fill:#202121;" d="M28.922,397.661V114.336c0-16.188,13.124-29.31,29.311-29.31h-20.84
		c-16.187,0-29.309,13.123-29.309,29.31v283.326c0,16.188,13.122,29.311,29.309,29.311h20.84
		C42.047,426.973,28.922,413.849,28.922,397.661z"/>
</g>
<path style="fill:#202121;" d="M474.607,435.057H37.393C16.775,435.057,0,418.282,0,397.661V114.336
	c0-20.62,16.775-37.394,37.393-37.394h437.212c20.619,0,37.393,16.775,37.393,37.394v10.979c0,4.465-3.62,8.084-8.084,8.084
	c-4.466,0-8.084-3.62-8.084-8.084v-10.979c0-11.704-9.522-21.226-21.225-21.226H37.393c-11.703,0-21.225,9.522-21.225,21.226
	v283.326c0,11.705,9.522,21.227,21.225,21.227h437.212c11.703,0,21.225-9.522,21.225-21.227V151.544
	c0-4.466,3.618-8.084,8.084-8.084c4.465,0,8.084,3.618,8.084,8.084v246.117C512,418.282,495.226,435.057,474.607,435.057z"/>
<path style="fill:#F26E21;" d="M307.703,255.807c0.04-9.331-3.458-18.677-10.501-25.72c-7.056-7.057-16.425-10.553-25.777-10.497
	c-0.044,0-0.088-0.003-0.134-0.003c-20.306,0-36.412,16.103-36.412,36.415c0,20.111,16.304,36.411,36.412,36.411
	c20.312,0,36.417-16.106,36.417-36.411C307.709,255.936,307.703,255.871,307.703,255.807z"/>
<g>
	<path style="fill:#E7E8E3;" d="M228.108,271.406c-5.443,5.449-10.466,7.577-15.876,7.692c-13.182-0.119-22.871-9.88-22.871-23.797
		c0-7.005,2.652-12.747,6.855-17.653l0,0c3.941-3.741,9.014-6.158,14.852-6.158c6.302,0,11.207,2.101,16.805,7.702v-16.106
		c-5.598-2.799-10.503-4.201-16.805-4.201c-8.9,0.636-17.295,4.233-23.731,9.881l0,0c-1.857,1.67-3.635,3.513-5.143,5.621
		c-4.703,6.095-7.544,13.559-7.544,21.615c0,20.305,16.11,35.711,36.418,35.711c0.099,0,0.196-0.009,0.293-0.01
		c0.136,0.002,0.271,0.01,0.406,0.01c5.602,0,10.507-1.397,16.808-4.201L228.108,271.406c-0.236,0.236,0.234,0.456,0,0.68V271.406z"
		/>
	<polygon style="fill:#E7E8E3;" points="353.679,228.914 353.679,228.914 337.82,267.906 319.612,221.685 304.908,221.685 
		333.618,292.413 341.32,292.413 371.432,221.685 356.728,221.685 	"/>
	<polygon style="fill:#E7E8E3;" points="377.036,252.496 377.036,290.315 414.854,290.315 415.551,290.315 415.551,279.108 
		403.647,279.108 391.042,279.108 391.042,266.505 391.042,260.204 414.854,260.204 414.854,248.294 391.042,248.294 
		391.042,233.591 415.551,233.591 415.551,221.685 377.036,221.685 	"/>
	<path style="fill:#E7E8E3;" d="M60.51,221.685H40.9v68.631h19.609c10.503,0,18.206-2.804,24.507-7.706
		c7.703-6.302,12.606-16.104,12.606-26.608C97.623,235.69,82.914,221.685,60.51,221.685z M76.616,273.509
		c-4.202,3.5-9.805,5.599-18.209,5.599h-4.203V233.59h3.5c8.404,0,14.007,1.4,18.209,5.601c4.902,4.199,7.704,10.505,7.704,16.81
		C84.318,262.303,81.518,269.303,76.616,273.509z"/>
	<rect x="103.93" y="221.68" style="fill:#E7E8E3;" width="13.306" height="68.63"/>
	<path style="fill:#E7E8E3;" d="M150.844,248.294c-8.402-2.8-10.505-4.903-10.505-8.403c0-4.202,4.202-7.702,9.806-7.702
		c4.202,0,7.703,1.401,11.204,5.603l7.004-9.103c-5.604-4.904-12.604-7.703-20.306-7.703c-11.907,0-21.713,8.404-21.713,19.606
		c0,9.807,4.206,14.007,16.81,18.91c5.601,2.098,7.702,2.8,9.106,4.201c2.797,1.398,4.201,4.202,4.201,7
		c0,5.603-4.201,9.807-10.506,9.807c-6.306,0-11.904-3.501-14.707-9.104l-8.404,8.404c6.307,9.103,14.008,13.304,23.813,13.304
		c14.005,0,23.805-9.103,23.805-22.411C170.45,258.801,166.25,253.897,150.844,248.294z"/>
	<path style="fill:#E7E8E3;" d="M453.368,261.6c10.501-2.098,16.105-9.103,16.105-19.606c0-12.603-9.104-20.311-24.508-20.311
		h-20.311v68.631h13.306V263h2.103l18.904,27.314h16.109L453.368,261.6z M442.161,253.195h-4.202V232.19h4.202
		c8.403,0,13.307,3.5,13.307,10.507C455.468,249.697,450.564,253.195,442.161,253.195z"/>
</g>
<g>
</g>
<g>
</g>
<g>
</g>
<g>
</g>
<g>
</g>
<g>
</g>
<g>
</g>
<g>
</g>
<g>
</g>
<g>
</g>
<g>
</g>
<g>
</g>
<g>
</g>
<g>
</g>
<g>
</g>
</svg>
