<?xml version="1.0" encoding="iso-8859-1"?>
<!-- Generator: Adobe Illustrator 19.0.0, SVG Export Plug-In . SVG Version: 6.00 Build 0)  -->
<svg version="1.1" id="Capa_1" xmlns="http://www.w3.org/2000/svg" xmlns:xlink="http://www.w3.org/1999/xlink" x="0px" y="0px"
	 viewBox="0 0 512 512" style="enable-background:new 0 0 512 512;" xml:space="preserve">
<path style="fill:#2196F3;" d="M480,80H32C14.368,80,0,94.368,0,112v288c0,17.664,14.368,32,32,32h448c17.664,0,32-14.336,32-32V112
	C512,94.368,497.664,80,480,80z"/>
<rect x="64" y="144" style="fill:#FFC107;" width="128" height="128"/>
<g>
	<path style="fill:#FAFAFA;" d="M240,368H80c-8.8,0-16-7.2-16-16l0,0c0-8.8,7.2-16,16-16h160c8.8,0,16,7.2,16,16l0,0
		C256,360.8,248.8,368,240,368z"/>
	<path style="fill:#FAFAFA;" d="M432,368h-64c-8.8,0-16-7.2-16-16l0,0c0-8.8,7.2-16,16-16h64c8.8,0,16,7.2,16,16l0,0
		C448,360.8,440.8,368,432,368z"/>
</g>
<g>
</g>
<g>
</g>
<g>
</g>
<g>
</g>
<g>
</g>
<g>
</g>
<g>
</g>
<g>
</g>
<g>
</g>
<g>
</g>
<g>
</g>
<g>
</g>
<g>
</g>
<g>
</g>
<g>
</g>
</svg>
