<svg width="27" height="26" viewBox="0 0 27 26" fill="none" xmlns="http://www.w3.org/2000/svg">
<path d="M20.076 0C17.6284 0 15.644 1.793 15.644 4C15.644 6.665 19.522 10.306 19.522 13.969H20.63C20.6311 10.306 24.508 6.77 24.508 4C24.508 1.793 22.5236 0 20.076 0ZM20.076 1.938C20.3762 1.93813 20.6734 1.99162 20.9507 2.09542C21.2279 2.19922 21.4798 2.35129 21.692 2.54295C21.9042 2.73461 22.0724 2.9621 22.1871 3.21245C22.3019 3.46279 22.3609 3.73108 22.3607 4.002C22.3606 4.27292 22.3013 4.54116 22.1863 4.7914C22.0713 5.04164 21.9028 5.26899 21.6904 5.46047C21.4781 5.65194 21.226 5.80379 20.9486 5.90735C20.6712 6.0109 20.374 6.06413 20.0738 6.064C19.4674 6.06374 18.886 5.84608 18.4574 5.45891C18.0289 5.07174 17.7883 4.54677 17.7886 3.9995C17.7888 3.45223 18.03 2.92747 18.459 2.54068C18.888 2.15388 19.4696 1.93673 20.076 1.937V1.938ZM13.428 2C6.09638 2 0.132019 7.383 0.132019 14C0.132019 20.617 6.09638 26 13.428 26C20.7597 26 26.724 20.617 26.724 14C26.724 11.99 26.1722 10.104 25.2005 8.437C25.0532 8.701 24.9047 8.952 24.7507 9.219C24.4593 9.727 24.1523 10.24 23.8842 10.75C24.1612 11.465 24.3518 12.221 24.4382 13H22.9845C22.9047 13.335 22.846 13.65 22.846 13.969V15H24.4393C24.289 16.4098 23.8045 17.774 23.0189 19H19.7658C20.0095 18.062 20.1503 17.025 20.25 15.969H18.0672C17.964 16.9922 17.7675 18.0059 17.48 19H9.37606C9.0016 17.6912 8.781 16.3505 8.71791 15H17.3049V13.969C17.2963 13.6425 17.2499 13.3178 17.1664 13H8.71902C8.78211 11.6495 9.00271 10.3088 9.37717 9H15.2983C14.914 8.345 14.5555 7.67792 14.2236 7H10.1384C11.0547 5.113 12.2657 4 13.428 4C13.428 3.305 13.5665 2.652 13.8092 2.031C13.6818 2.027 13.5565 2 13.428 2ZM8.85752 4.906C8.41627 5.57111 8.0453 6.27219 7.74952 7H5.53352C6.48927 6.1233 7.61616 5.4134 8.85752 4.906ZM3.83717 9H7.09026C6.75514 10.3137 6.55815 11.6529 6.50191 13H2.41671C2.56655 11.5901 3.05101 10.2258 3.83717 9ZM2.41671 15H6.50302C6.56839 16.425 6.77226 17.77 7.09137 19H3.83717C3.05196 17.7738 2.56757 16.4097 2.41671 15ZM5.53352 21H7.74952C8.06862 21.776 8.44202 22.473 8.85752 23.094C7.61616 22.5866 6.48927 21.8767 5.53352 21ZM10.1384 21H16.7177C15.8014 22.887 14.5903 24 13.428 24C12.2657 24 11.0536 22.887 10.1384 21ZM19.1065 21H21.3225C20.3668 21.8767 19.2399 22.5866 17.9985 23.094C18.414 22.474 18.7874 21.777 19.1065 21Z" fill="white"/>
</svg>
