<svg height="470pt" viewBox="0 -33 470.256 470" width="470pt" xmlns="http://www.w3.org/2000/svg"><path d="m390.894531 400.128906h-360c-14.855469 0-26.894531-12.039062-26.894531-26.898437v-342.199219c0-14.855469 12.039062-26.894531 26.894531-26.894531h360c14.859375 0 26.898438 12.039062 26.898438 26.894531v342.199219c0 14.859375-12.039063 26.898437-26.898438 26.898437zm0 0" fill="#f8f3f3"/><path d="m390.894531 404.128906h-360c-17.039062 0-30.894531-13.855468-30.894531-30.898437v-342.199219c0-17.039062 13.855469-30.902344 30.894531-30.902344h360c17.042969 0 30.898438 13.863282 30.898438 30.902344v342.191406c0 17.050782-13.855469 30.90625-30.898438 30.90625zm-360-396c-12.621093 0-22.894531 10.269532-22.894531 22.902344v342.191406c0 12.625 10.273438 22.898438 22.894531 22.898438h360c12.625 0 22.898438-10.273438 22.898438-22.898438v-342.191406c0-12.632812-10.273438-22.902344-22.898438-22.902344zm0 0" fill="#63312d"/><path d="m439.359375 4.128906h-48.464844c14.859375 0 26.898438 12.039063 26.898438 26.894532v342.199218c0 14.855469-12.039063 26.898438-26.898438 26.898438h48.464844c14.855469 0 26.898437-12.042969 26.898437-26.898438v-342.191406c.007813-14.855469-12.042968-26.902344-26.898437-26.902344zm0 0" fill="#d1d1d1"/><path d="m439.359375 404.128906h-48.472656c-2.207031 0-4-1.792968-4-4 0-2.207031 1.792969-4 4-4 12.625 0 22.898437-10.273437 22.898437-22.898437v-342.207031c0-12.625-10.273437-22.894532-22.898437-22.894532-2.207031 0-4-1.792968-4-4 0-2.207031 1.792969-4 4-4h48.472656c17.039063 0 30.898437 13.855469 30.898437 30.894532v342.199218c.007813 17.050782-13.859374 30.90625-30.898437 30.90625zm-27.734375-8h27.742188c12.625 0 22.898437-10.273437 22.898437-22.898437v-342.207031c0-12.625-10.273437-22.894532-22.898437-22.894532h-27.742188c6.238281 5.65625 10.167969 13.832032 10.167969 22.894532v342.199218c0 9.074219-3.929688 17.25-10.167969 22.90625zm0 0" fill="#63312d"/><path d="m328.128906 112.847656c0 17.457032-14.152344 31.609375-31.609375 31.609375s-31.609375-14.152343-31.609375-31.609375c0-17.457031 14.152344-31.609375 31.609375-31.609375s31.609375 14.152344 31.609375 31.609375zm0 0" fill="#f9dd9d"/><path d="m296.519531 148.457031c-19.632812 0-35.609375-15.976562-35.609375-35.609375 0-19.632812 15.976563-35.609375 35.609375-35.609375 19.632813 0 35.609375 15.976563 35.609375 35.609375 0 19.632813-15.976562 35.609375-35.609375 35.609375zm0-63.21875c-15.222656 0-27.609375 12.386719-27.609375 27.609375s12.386719 27.609375 27.609375 27.609375c15.222657 0 27.609375-12.386719 27.609375-27.609375s-12.386718-27.609375-27.609375-27.609375zm0 0" fill="#63312d"/><path d="m311.679688 144.457031h-30.328126c-19.03125 0-34.464843 15.429688-34.464843 34.464844v65.925781h99.25v-65.925781c.007812-19.035156-15.425781-34.464844-34.457031-34.464844zm0 0" fill="#f8f3f3"/><path d="m346.144531 248.847656h-99.25c-2.207031 0-4-1.792968-4-4v-65.925781c0-21.210937 17.25-38.464844 38.464844-38.464844h30.328125c21.207031 0 38.464844 17.246094 38.464844 38.464844v65.925781c-.007813 2.207032-1.800782 4-4.007813 4zm-95.25-8h91.25v-61.925781c0-16.800781-13.664062-30.464844-30.464843-30.464844h-30.328126c-16.800781 0-30.464843 13.664063-30.464843 30.464844v61.925781zm0 0" fill="#63312d"/><path d="m362.496094 216.847656c-2.375 0-6.761719 1.136719-6.761719 1.136719l-59.222656 21.582031-59.222657-21.582031s-4.386718-1.136719-6.761718-1.136719c-12.910156 0-23.230469 11.113282-21.910156 24.296875 1.144531 11.464844 11.648437 19.75 23.167968 19.75h129.445313c11.523437 0 22.015625-8.285156 23.167969-19.75 1.328124-13.183593-8.992188-24.296875-21.902344-24.296875zm0 0" fill="#84dbff"/><path d="m361.238281 264.894531h-129.4375c-13.914062 0-25.839843-10.253906-27.152343-23.351562-.746094-7.351563 1.664062-14.679688 6.582031-20.128907 4.929687-5.445312 11.960937-8.566406 19.304687-8.566406 2.753906 0 6.953125 1.054688 7.769532 1.273438l58.207031 21.191406 57.847656-21.089844c1.167969-.328125 5.375-1.382812 8.128906-1.382812 7.34375 0 14.375 3.128906 19.304688 8.566406 4.917969 5.449219 7.328125 12.777344 6.582031 20.128906-1.296875 13.097656-13.222656 23.359375-27.136719 23.359375zm-130.695312-44.046875c-5.085938 0-9.957031 2.167969-13.375 5.9375-3.464844 3.832032-5.078125 8.78125-4.558594 13.957032.910156 9.058593 9.34375 16.152343 19.191406 16.152343h129.4375c9.851563 0 18.28125-7.09375 19.195313-16.152343.511718-5.175782-1.105469-10.132813-4.5625-13.957032-3.414063-3.777344-8.285156-5.9375-13.375-5.9375-1.28125 0-4.136719.59375-5.753906 1.007813l-58.855469 21.480469c-.871094.328124-1.855469.328124-2.734375 0l-59.214844-21.582032c-1.265625-.3125-4.113281-.90625-5.394531-.90625zm0 0" fill="#63312d"/><path d="m172.609375 162.089844c0 19.804687-16.058594 35.863281-35.867187 35.863281-19.804688 0-35.863282-16.058594-35.863282-35.863281 0-19.808594 16.058594-35.867188 35.863282-35.867188 19.808593 0 35.867187 16.058594 35.867187 35.867188zm0 0" fill="#f9dd9d"/><path d="m136.734375 201.953125c-21.972656 0-39.855469-17.882813-39.855469-39.855469 0-21.976562 17.882813-39.859375 39.855469-39.859375 21.984375 0 39.867187 17.882813 39.867187 39.859375 0 21.972656-17.882812 39.855469-39.867187 39.855469zm0-71.722656c-17.566406 0-31.855469 14.289062-31.855469 31.859375 0 17.566406 14.289063 31.855468 31.855469 31.855468 17.570313 0 31.867187-14.289062 31.867187-31.855468 0-17.570313-14.296874-31.859375-31.867187-31.859375zm0 0" fill="#63312d"/><path d="m153.945312 197.953125h-34.402343c-21.589844 0-39.09375 17.503906-39.09375 39.09375v74.792969h112.589843v-74.792969c0-21.589844-17.503906-39.09375-39.09375-39.09375zm0 0" fill="#f9a287"/><path d="m96.441406 237.953125c0-13.257813 10.742188-24 24-24h49.496094c6.664062 0 12.839844 1.824219 18.335938 4.757813-6.585938-12.296876-19.410157-20.757813-34.335938-20.757813h-34.402344c-21.589844 0-39.09375 17.503906-39.09375 39.09375v74.792969h16zm0 0" fill="#ffc8bb"/><path d="m193.03125 315.839844h-112.589844c-2.210937 0-4-1.792969-4-4v-74.792969c0-23.765625 19.335938-43.101563 43.101563-43.101563h34.402343c23.765626 0 43.09375 19.335938 43.09375 43.101563v74.792969c-.007812 2.207031-1.792968 4-4.007812 4zm-108.589844-8h104.589844v-70.792969c0-19.351563-15.742188-35.101563-35.09375-35.101563h-34.402344c-19.351562 0-35.101562 15.75-35.101562 35.101563v70.792969zm0 0" fill="#63312d"/><path d="m211.59375 280.078125c-2.691406 0-7.664062 1.289063-7.664062 1.289063l-67.1875 24.488281-67.183594-24.488281s-4.972656-1.289063-7.664063-1.289063c-14.648437 0-26.351562 12.609375-24.855469 27.5625 1.304688 13.007813 13.21875 22.40625 26.28125 22.40625h146.855469c13.070313 0 24.984375-9.40625 26.28125-22.40625 1.488281-14.960937-10.21875-27.5625-24.863281-27.5625zm0 0" fill="#84dbff"/><path d="m210.167969 334.046875h-146.855469c-15.511719 0-28.808594-11.421875-30.257812-26.007813-.832032-8.183593 1.847656-16.367187 7.335937-22.429687 5.488281-6.066406 13.320313-9.539063 21.496094-9.539063 3.121093 0 8.121093 1.273438 8.671875 1.417969l66.175781 24.113281 65.824219-23.992187c.921875-.257813 5.921875-1.53125 9.035156-1.53125 8.175781 0 16.015625 3.480469 21.503906 9.546875 5.488282 6.0625 8.167969 14.230469 7.335938 22.421875-1.464844 14.585937-14.753906 26-30.265625 26zm-148.28125-49.976563c-5.910157 0-11.582031 2.515626-15.558594 6.90625-4.03125 4.457032-5.914063 10.230469-5.3125 16.261719 1.054687 10.546875 10.847656 18.808594 22.304687 18.808594h146.847657c11.457031 0 21.246093-8.253906 22.304687-18.808594.597656-6.03125-1.28125-11.804687-5.3125-16.253906-3.976562-4.398437-9.648437-6.914063-15.566406-6.914063-1.648438 0-5.195312.785157-6.664062 1.167969l-66.824219 24.378907c-.875.328124-1.859375.328124-2.738281 0l-67.175782-24.496094c-1.375-.335938-4.71875-1.050782-6.304687-1.050782zm0 0" fill="#63312d"/><path d="m136.742188 229.535156 18.234374-31.582031h-36.472656zm0 0" fill="#f9dd9d"/><path d="m136.734375 233.535156c-1.429687 0-2.75-.765625-3.460937-2l-18.234376-31.582031c-.71875-1.234375-.71875-2.769531 0-4 .714844-1.234375 2.03125-2 3.464844-2h36.480469c1.429687 0 2.75.765625 3.464844 2 .71875 1.230469.71875 2.765625 0 4l-18.242188 31.582031c-.71875 1.234375-2.039062 2-3.472656 2zm-11.300781-31.582031 11.300781 19.582031 11.3125-19.582031zm0 0" fill="#63312d"/></svg>