<svg id="flat" height="512" viewBox="0 0 512 512" width="512" xmlns="http://www.w3.org/2000/svg"><path d="m176 152-32-8-15.99967 40 .00185 8.47445a15.5218 15.5218 0 0 1 -15.52174 15.52555h-.68829a15.68978 15.68978 0 0 1 -15.79215-15.66236v-.34313a57.10245 57.10245 0 0 1 2.19807-15.68669l11.41-39.935a33.60489 33.60489 0 0 1 8.54962-14.53021 33.60472 33.60472 0 0 1 23.76217-9.84261h50.08014z" fill="#ffbfa1"/><path d="m176.00033 124v92l56-8v-84a28 28 0 0 0 -28-28h-.00006a28 28 0 0 0 -27.99994 28z" fill="#ef5e3b"/><path d="m192.00033 40-11.02945-11.02947a16.97053 16.97053 0 0 0 -12-4.97055 16.97054 16.97054 0 0 0 -16.97054 16.97054v26.1851a53.8962 53.8962 0 0 1 -24 44.84436h24.00005a32 32 0 0 0 31.99995-31.99994z" fill="#b1712c"/><path d="m192.00033 71.999 16-15.999h24v24a24 24 0 0 1 -24 24 24 24 0 0 1 -24-24v-8z" fill="#ffceb6"/><path d="m232.00033 56a24 24 0 0 0 -24-24 24 24 0 0 0 -24 24v16l8-.001 16-15.999z" fill="#c78640"/><path d="m214.48934 112.11127 25.51099 31.88873 32-16 5.65431-8.48146a15.29013 15.29013 0 0 1 23.53391-2.33032 15.29013 15.29013 0 0 1 0 21.62351l-33.87455 33.87457a38.62735 38.62735 0 0 1 -27.31366 11.3137 38.62737 38.62737 0 0 1 -27.31368-11.3137l-29.34124-29.34123a25.07766 25.07766 0 0 1 -7.34506-17.73256 21.61247 21.61247 0 0 1 21.61244-21.61251 21.61246 21.61246 0 0 1 16.87654 8.11127z" fill="#ffceb6"/><path d="m384 304-32 16-40-88-37.24 14.9-42.76 17.1-3.27 24-20.73 152h-32v-224l56-8 24-8 42.13-14.04a38.11727 38.11727 0 0 1 47.46009 22.01z" fill="#ffceb6"/><path d="m352 320v16l56 16 8-16-32-32z" fill="#e0edff"/><path d="m274.76 246.9-42.76 17.1-3.27 24h-52.73v-72l56-8 24-8z" fill="#ffb401"/><path d="m176 440h32l8 48h-16l-32-32z" fill="#e0edff"/></svg>