<svg id="flat" height="512" viewBox="0 0 512 512" width="512" xmlns="http://www.w3.org/2000/svg"><path d="m368 123.24a50.17417 50.17417 0 0 1 -14.67993 35.43994l-33.32007 33.32006-16 56 13.77 86.08008 18.23 113.91992-32 24-34.78-121.74023-13.22-46.25977-13.22 46.25977-34.78 121.74023-32-24 18.23-113.91992 13.77-86.08008-16-56-33.32007-33.32007a50.1412 50.1412 0 0 1 -1.80981-68.98l59.12988-65.69993 24 16-8 16 8 16-8 8h-16l-24 40 40 40h48l40-40-24-40h-16l-8-8 8-16-8-16 24-16 59.12988 65.7a50.11523 50.11523 0 0 1 12.87012 33.54z" fill="#ffceb6"/><path d="m208 472v16h-72v-16l40-24z" fill="#e0edff"/><path d="m336 448 40 24v16h-72v-16z" fill="#e0edff"/><path d="m317.77 334.08-48.55 16.18-13.22-46.26-13.22 46.26-48.55-16.18 13.77-86.08h96z" fill="#ffb401"/><path d="m344 168-24 24-16 56h-96l-16-56-24-24 36-36 28 28h48l28-28z" fill="#548aff"/><path d="m232 136h48a0 0 0 0 1 0 0v24a24 24 0 0 1 -24 24 24 24 0 0 1 -24-24v-24a0 0 0 0 1 0 0z" fill="#ffceb6"/><path d="m232 136v-16l19.359-12.906a18.42223 18.42223 0 0 1 10.21879-3.094 18.42218 18.42218 0 0 1 18.42221 18.42219v13.57781z" fill="#c78640"/></svg>