<svg width="17" height="20" viewBox="0 0 17 20" fill="none" xmlns="http://www.w3.org/2000/svg">
<path d="M16.3846 8.115C16.2905 8.01833 15.9349 7.605 15.6037 7.265C13.6618 5.12667 8.59604 1.62667 5.94463 0.558333C5.54197 0.386667 4.52395 0.0233333 3.98003 0C3.45884 0 2.96201 0.12 2.4879 0.363333C1.8969 0.703333 1.4228 1.23833 1.16301 1.87C0.995779 2.30833 0.735998 3.62 0.735998 3.64333C0.476215 5.07833 0.333334 7.41 0.333334 9.98667C0.333334 12.4417 0.476213 14.6783 0.688911 16.135C0.713266 16.1583 0.973047 17.7883 1.25718 18.3467C1.77837 19.3667 2.7964 20 3.88586 20H3.98003C4.68956 19.975 6.18169 19.3417 6.18169 19.3183C8.69021 18.2483 13.6391 14.92 15.628 12.7083C15.628 12.7083 16.1882 12.14 16.4317 11.785C16.8117 11.275 17 10.6433 17 10.0117C17 9.30667 16.7873 8.65 16.3846 8.115Z" fill="white"/>
</svg>
