<svg width="25" height="22" viewBox="0 0 25 22" fill="none" xmlns="http://www.w3.org/2000/svg">
<path d="M9.37472 12.7565L9.59966 13.15C10.5416 14.7814 11.4958 16.2135 12.1995 17.1L12.6737 17.6301C12.9282 17.909 13.2303 18.2193 13.4336 18.3494C14.1775 18.8252 15.1081 18.848 15.8446 18.4228L15.9087 18.3857C16.3796 18.0927 17.145 17.0891 17.1365 17.0744C18.3663 15.4565 20.3108 11.5936 20.911 9.29358L21.0772 8.61109C21.1184 8.42834 21.1606 8.21586 21.1739 8.06157C21.2342 7.57408 21.1199 7.08001 20.8774 6.65995C20.6067 6.19104 20.2111 5.83819 19.7331 5.63872L19.0323 5.42205L18.8782 5.37846C16.7447 4.71342 11.9757 4.36522 9.77241 4.68806L9.44195 4.74058C9.04896 4.81186 8.51237 4.93606 8.22833 5.08295C7.87641 5.28613 7.58745 5.56205 7.36003 5.90826C7.09017 6.36528 6.97677 6.90617 7.04273 7.42817C7.09806 7.78373 7.42558 8.75876 7.43475 8.77463C7.78114 9.74841 8.48929 11.1917 9.37472 12.7565Z" fill="white"/>
<path d="M12.7282 6.41932C14.9248 5.56122 17.3843 6.60254 18.2213 8.74498C19.0582 10.8874 16.4385 11.9354 14.2419 12.7935L11.1443 14.1018C7.08797 17.3482 4.3247 22.4621 3.66702 20.7785C3.01044 19.0978 8.91703 8.92401 11.6858 7.13261L12.7282 6.41932Z" fill="white"/>
</svg>
