<svg width="32" height="28" viewBox="0 0 32 28" fill="none" xmlns="http://www.w3.org/2000/svg">
<path d="M16.5496 3.903C17.4338 3.154 18.882 3.72 18.882 4.814V23.184C18.882 24.279 17.4349 24.844 16.5496 24.097L11.0794 19.47C10.7203 19.1662 10.2465 18.9971 9.75428 18.997H6.41698C5.46193 18.997 4.54601 18.6546 3.87069 18.0451C3.19537 17.4356 2.81598 16.609 2.81598 15.747V12.255C2.81598 11.3931 3.19537 10.5664 3.87069 9.95691C4.54601 9.34741 5.46193 9.005 6.41698 9.005H9.75317C10.2462 9.005 10.7205 8.836 11.0794 8.532L16.5496 3.902V3.903Z" fill="white"/>
<path d="M24.5815 5.18501C24.7469 5.05369 24.9632 4.98698 25.183 4.99955C25.4028 5.01211 25.6081 5.10291 25.7538 5.25201C28.1134 7.66811 29.413 10.7793 29.408 14C29.408 17.352 28.0274 20.415 25.7538 22.748C25.6829 22.8253 25.5955 22.8891 25.4968 22.9354C25.3981 22.9817 25.2901 23.0096 25.1793 23.0176C25.0684 23.0255 24.9569 23.0133 24.8513 22.9816C24.7458 22.9499 24.6484 22.8994 24.5648 22.8332C24.4813 22.7669 24.4134 22.6861 24.365 22.5957C24.3167 22.5053 24.289 22.407 24.2835 22.3068C24.2781 22.2065 24.295 22.1063 24.3332 22.012C24.3714 21.9178 24.4303 21.8314 24.5062 21.758C26.599 19.6155 27.7513 16.8562 27.746 14C27.746 11.027 26.5239 8.31301 24.5062 6.24301C24.3608 6.09365 24.2871 5.89832 24.3012 5.69993C24.3154 5.50155 24.4162 5.31634 24.5815 5.18501Z" fill="white"/>
<path d="M23.1511 8.30301C23.0856 8.22421 23.0036 8.15783 22.9097 8.10765C22.8158 8.05747 22.7118 8.02447 22.6038 8.01054C22.4958 7.99662 22.3857 8.00203 22.28 8.02647C22.1743 8.05091 22.075 8.09391 21.9877 8.15301C21.9004 8.2121 21.8268 8.28614 21.7712 8.37089C21.7156 8.45564 21.6791 8.54944 21.6636 8.64694C21.6482 8.74444 21.6542 8.84373 21.6813 8.93914C21.7084 9.03455 21.756 9.12421 21.8215 9.20301C22.9731 10.586 23.5942 12.27 23.5909 14C23.5909 15.8 22.9328 17.46 21.8215 18.797C21.756 18.8758 21.7084 18.9655 21.6813 19.0609C21.6542 19.1563 21.6482 19.2556 21.6636 19.3531C21.6791 19.4506 21.7156 19.5444 21.7712 19.6291C21.8268 19.7139 21.9004 19.7879 21.9877 19.847C22.075 19.9061 22.1743 19.9491 22.28 19.9735C22.3857 19.998 22.4958 20.0034 22.6038 19.9895C22.7118 19.9755 22.8158 19.9425 22.9097 19.8924C23.0036 19.8422 23.0856 19.7758 23.1511 19.697C24.5185 18.0544 25.2563 16.0546 25.2529 14C25.2529 11.864 24.4707 9.89001 23.1511 8.30301Z" fill="white"/>
</svg>
