<svg width="26" height="21" viewBox="0 0 26 21" fill="none" xmlns="http://www.w3.org/2000/svg">
<path d="M21.125 3H19.2L17.896 0.699C17.67 0.3 17.18 0 16.5 0H9.5C8.791 0 8.331 0.3 8.104 0.699L6.8 3H4.875C4.23477 2.99987 3.60078 3.12587 3.00926 3.37082C2.41774 3.61576 1.88027 3.97485 1.42756 4.42756C0.97485 4.88027 0.615765 5.41774 0.37082 6.00926C0.125875 6.60078 -0.000131267 7.23477 1.02616e-07 7.875L1.02616e-07 16.125C-0.000131267 16.7652 0.125875 17.3992 0.37082 17.9907C0.615765 18.5823 0.97485 19.1197 1.42756 19.5724C1.88027 20.0252 2.41774 20.3842 3.00926 20.6292C3.60078 20.8741 4.23477 21.0001 4.875 21H21.125C21.7652 21.0001 22.3992 20.8741 22.9907 20.6292C23.5823 20.3842 24.1197 20.0252 24.5724 19.5724C25.0252 19.1197 25.3842 18.5823 25.6292 17.9907C25.8741 17.3992 26.0001 16.7652 26 16.125V7.875C26.0001 7.23477 25.8741 6.60078 25.6292 6.00926C25.3842 5.41774 25.0252 4.88027 24.5724 4.42756C24.1197 3.97485 23.5823 3.61576 22.9907 3.37082C22.3992 3.12587 21.7652 2.99987 21.125 3ZM13 19C11.1435 19 9.36301 18.2625 8.05025 16.9497C6.7375 15.637 6 13.8565 6 12H4L7 8L10 12H8C8 14.757 10.243 17 13 17C14.268 17 15.415 16.51 16.297 15.729L17.511 17.348C16.2507 18.416 14.652 19.0015 13 19ZM19 16L16 12H18C18 9.243 15.757 7 13 7C11.732 7 10.585 7.49 9.703 8.271L8.489 6.652C9.7493 5.58402 11.348 4.99853 13 5C14.8565 5 16.637 5.7375 17.9497 7.05025C19.2625 8.36301 20 10.1435 20 12H22L19 16Z" fill="black"/>
</svg>
