<?xml version="1.0" encoding="iso-8859-1"?>
<!-- Generator: Adobe Illustrator 19.0.0, SVG Export Plug-In . SVG Version: 6.00 Build 0)  -->
<svg version="1.1" id="Capa_1" xmlns="http://www.w3.org/2000/svg" xmlns:xlink="http://www.w3.org/1999/xlink" x="0px" y="0px"
	 viewBox="0 0 511.998 511.998" style="enable-background:new 0 0 511.998 511.998;" xml:space="preserve">
<path style="fill:#306FC5;" d="M503.916,397.661c0,16.188-13.122,29.311-29.309,29.311H37.393
	c-16.188,0-29.309-13.124-29.309-29.311V114.336c0-16.188,13.122-29.31,29.309-29.31h437.212c16.188,0,29.309,13.123,29.309,29.31
	v283.326L503.916,397.661L503.916,397.661z"/>
<g>
	<path style="fill:#202121;" d="M87.728,203.005l7.406,18.855H80.318L87.728,203.005 M87.729,186.837
		c-6.647,0-12.618,4.067-15.05,10.255l-7.409,18.855c-1.955,4.977-1.325,10.6,1.687,15.019c3.012,4.419,8.013,7.063,13.362,7.063
		h14.816c5.347,0,10.349-2.644,13.361-7.062c3.012-4.419,3.643-10.042,1.688-15.018l-7.406-18.855
		C100.346,190.906,94.376,186.837,87.729,186.837L87.729,186.837z"/>
	<path style="fill:#202121;" d="M187.387,285.156l12.121,14.143l-12.795,14.144h-27.607V303.34h24.916v-9.429h-24.916v-8.755
		H187.387 M187.387,268.988h-28.281c-8.929,0-16.168,7.239-16.168,16.168v8.755c0,1.639,0.245,3.223,0.698,4.715
		c-0.454,1.492-0.698,3.075-0.698,4.715v10.103c0,8.929,7.239,16.168,16.168,16.168h27.607c4.569,0,8.925-1.934,11.99-5.323
		l12.795-14.144c5.46-6.036,5.582-15.189,0.287-21.367l-12.121-14.143C196.592,271.051,192.108,268.988,187.387,268.988
		L187.387,268.988z"/>
	<path style="fill:#202121;" d="M353.71,203.005l7.409,18.855h-15.49L353.71,203.005 M353.709,186.837
		c-6.46,0-12.31,3.847-14.86,9.799l-8.081,18.855c-2.141,4.996-1.63,10.733,1.364,15.269c2.991,4.538,8.063,7.268,13.497,7.268
		h15.49c5.347,0,10.35-2.644,13.362-7.063s3.643-10.042,1.688-15.019l-7.409-18.855c-2.399-6.103-8.245-10.153-14.802-10.253
		C353.875,186.839,353.792,186.837,353.709,186.837L353.709,186.837z"/>
	<path style="fill:#202121;" d="M231.158,280.444v38.382l-17.51-19.526L231.158,280.444 M231.161,264.273
		c-4.411,0-8.731,1.808-11.851,5.167l-17.51,18.857c-5.687,6.125-5.77,15.573-0.19,21.797l17.509,19.526
		c3.128,3.487,7.534,5.374,12.041,5.374c1.938,0,3.893-0.349,5.775-1.069c6.257-2.394,10.39-8.4,10.39-15.1v-38.382
		c0-6.648-4.07-12.619-10.258-15.05C235.148,264.641,233.145,264.273,231.161,264.273L231.161,264.273z"/>
	<path style="fill:#202121;" d="M256.742,285.156c4.042,0,6.738,2.023,7.412,6.063c0,4.039-2.695,6.058-6.735,6.058h-14.815v-12.121
		H256.742 M256.742,268.988h-14.138c-8.929,0-16.168,7.239-16.168,16.168v12.121c0,8.929,7.239,16.168,16.168,16.168h14.815
		c13.27,0,22.903-9.348,22.903-22.226c0-0.891-0.073-1.78-0.22-2.659C278.149,276.853,268.761,268.988,256.742,268.988
		L256.742,268.988z"/>
	<path style="fill:#202121;" d="M305.902,285.831c2.018,0,4.041,0,5.384,0.674c1.347,0.675,2.697,2.023,2.022,4.715
		c0,2.017-0.675,4.039-2.022,4.714c-1.343,0.674-3.366,0.674-5.384,0.674h-13.469v-10.776L305.902,285.831 M305.902,269.663h-13.469
		c-8.929,0-16.168,7.239-16.168,16.168v10.776c0,8.929,7.239,16.168,16.168,16.168h13.469c3.133,0,7.869,0,12.633-2.39
		c6.246-3.128,10.306-9.658,10.874-17.31c1.325-8.747-2.874-17.018-10.882-21.029C313.771,269.663,309.036,269.663,305.902,269.663
		L305.902,269.663z"/>
	<path style="fill:#202121;" d="M438.557,185.496v65.991h-29.629h-0.675h-1.343l-6.063-10.099v3.366v6.733h-39.055l-4.04-10.771
		h-9.425l-4.04,10.771h-20.203c-8.082,0-14.139-2.017-18.18-4.04v4.04H257.42v-14.813c0-2.021,0-2.021-1.345-2.021h-1.348v17.509
		h-0.675h-77.44h-15.487v-0.675v-7.405l-3.366,8.08h-19.526l-3.371-8.08v7.405v0.675H95.809l-4.04-10.774h-8.754l-4.041,10.099
		l-0.244,0.675H78.3H43.957h-0.285l0.285-0.675l15.486-34.342l13.469-31.648h28.954h0.674l3.367,8.081v-8.081h10.102h24.242
		l7.406,16.835l7.411-16.835h108.414c5.388,0,9.427,1.348,12.794,4.041v-3.367v-0.674h30.302v4.041
		c5.385-2.693,11.448-4.041,18.855-4.041h43.095l4.042,8.081v-8.081h31.646l4.039,8.081v-8.081h30.303 M324.755,242.733h12.795
		l4.04-10.771h23.57l4.04,10.101h11.447v0.028h11.376v-6.161l0.07,0.071v-29.629l21.547,35.691h14.817V195.6h-11.452v32.994
		L397.48,195.6h-16.832v26.26v1.345v15.209v2.301L361.791,195.6h-10.099h-6.736l-15.487,37.035h-4.714
		c-3.365,0-6.057-0.674-8.081-2.697c-2.69-2.693-3.365-6.059-3.365-11.447c0-4.713,1.347-8.753,3.365-10.771
		c2.698-2.023,4.716-2.695,8.756-2.695h10.776v-10.1H325.43c-7.406,0-13.469,1.343-16.833,5.386
		c-4.715,5.385-6.059,12.123-6.059,18.857c0,8.753,2.018,14.14,6.059,18.18C312.634,241.389,319.372,242.733,324.755,242.733
		 M285.701,242.063h11.448v-47.137h-11.448V242.063 M233.849,242.063h11.445v-16.835h12.123c3.174,0,5.09,0.011,6.098,0.664
		c0.7,0.298,1.344,0.718,1.98,1.354c2.023,2.693,2.023,6.734,2.023,9.427v5.389h10.099v-9.427c0-0.41-0.011-0.788-0.025-1.159
		c0-0.02,0.002-0.037,0.002-0.058c0-0.037-0.005-0.069-0.005-0.107c-0.004-0.064-0.008-0.127-0.011-0.191
		c-0.054-3.687-1.095-6.202-2.386-7.893c-0.186-0.259-0.404-0.528-0.659-0.798c-0.019-0.015-0.043-0.026-0.06-0.041
		c-2.016-2.097-4.261-2.549-4.261-2.549c3.307-1.326,7.907-5.258,8.063-12.424c-0.077-5.203-2.07-8.49-5.369-10.471
		c-3.368-2.02-7.411-2.02-13.467-2.02H233.85L233.849,242.063 M188.735,242.733h37.709v-10.098H200.18v-9.43h25.589v-9.426H200.18
		v-8.754h26.264v-10.1h-37.709V242.733 M148.114,227.945l-6.101-13.853l-8.496-18.491h-0.025l-0.317-0.675h-13.801h-4.039v45.115
		l-18.853-45.116H79.648l-19.922,47.137h11.836l4.715-10.101h22.898l4.714,10.101h22.893v-37.038l16.16,37.038h5.827h3.601h0.495
		l15.665-35.511v0.018l0.675-1.545v33v4.038h4.039h6.736v-47.137h-18.183l-13.467,32.321L148.114,227.945 M438.557,169.328h-30.304
		c-0.686,0-1.362,0.043-2.025,0.125c-0.662-0.083-1.334-0.125-2.014-0.125h-31.646c-0.687,0-1.364,0.043-2.026,0.125
		c-0.663-0.082-1.337-0.125-2.016-0.125H325.43c-4.501,0-8.733,0.395-12.74,1.195c-1.886-0.771-3.95-1.195-6.115-1.195h-30.302
		c-1.687,0-3.315,0.259-4.844,0.738c-2.53-0.49-5.182-0.738-7.949-0.738H155.066c-2.631,0-5.162,0.639-7.408,1.797
		c-2.246-1.159-4.777-1.797-7.408-1.797h-24.242h-10.102c-0.57,0-1.133,0.029-1.688,0.087c-0.554-0.058-1.115-0.087-1.679-0.087
		h-0.674H72.912c-6.482,0-12.339,3.872-14.877,9.837l-13.401,31.491l-15.415,34.185c-0.056,0.122-0.109,0.247-0.162,0.371
		l-0.285,0.675c-2.103,4.992-1.566,10.706,1.43,15.219c2.995,4.513,8.053,7.225,13.47,7.225h0.285H78.3h0.43
		c3.091,0,6.033-0.878,8.539-2.439c2.508,1.56,5.45,2.439,8.539,2.439h39.052c0.57,0,1.134-0.029,1.689-0.087
		c0.554,0.058,1.115,0.087,1.68,0.087h19.526c0.565,0,1.125-0.029,1.678-0.087c0.555,0.058,1.118,0.087,1.687,0.087h15.487h77.44
		h0.675c1.613,0,3.168-0.236,4.637-0.675h46.54c2.165,0,4.23-0.426,6.117-1.196c3.897,0.791,7.946,1.196,12.063,1.196h20.203
		c3.178,0,6.199-0.929,8.753-2.574c2.553,1.644,5.575,2.574,8.753,2.574h39.055c1.039,0,2.054-0.098,3.039-0.286
		c0.986,0.189,2,0.286,3.025,0.286h1.343h0.675h29.629c8.929,0,16.168-7.239,16.168-16.168v-65.991
		C454.725,176.568,447.486,169.328,438.557,169.328L438.557,169.328z"/>
	<path style="fill:#202121;" d="M258.764,205.026c2.019,0,4.04,0,5.388,0.672c0.856,0.43,1.711,1.139,2.045,2.293l0.005-0.001
		c0.016,0.055,0.014,0.102,0.026,0.156c0.046,0.196,0.085,0.397,0.101,0.614c0.377,2.374-0.323,4.111-0.933,5.078
		c-0.151,0.273-0.331,0.511-0.526,0.721c-0.091,0.105-0.158,0.177-0.158,0.177l-0.003-0.009c-0.171,0.157-0.354,0.298-0.556,0.4
		c-1.348,0.675-3.37,0.675-5.388,0.675h-13.469v-10.776L258.764,205.026 M258.764,188.857h-13.469
		c-8.929,0-16.168,7.239-16.168,16.168v10.776c0,8.929,7.239,16.168,16.168,16.168h13.469c3.129,0,7.86,0,12.624-2.384
		c0.018-0.01,0.036-0.018,0.054-0.027c1.427-0.721,2.772-1.643,4.003-2.742c0.358-0.315,0.704-0.648,1.036-0.996
		c0,0,0.181-0.19,0.439-0.48c0.898-0.997,1.691-2.078,2.366-3.223c2.738-4.52,3.829-9.931,3.094-15.341
		c-0.063-0.545-0.15-1.09-0.261-1.642c-0.1-0.553-0.226-1.093-0.383-1.634c-0.094-0.327-0.198-0.648-0.31-0.963
		c-1.687-4.888-5.209-8.871-10.006-11.284c-0.019-0.011-0.039-0.02-0.058-0.029C266.608,188.857,261.887,188.857,258.764,188.857
		L258.764,188.857z"/>
	<path style="fill:#202121;" d="M464.789,264.283v2.023h0.03v30.301c2.02,3.366,3.365,8.081,3.365,12.795
		c0,0.44-0.018,0.872-0.04,1.306l0.04,0.038c-0.022,0.235-0.055,0.467-0.083,0.698c-0.581,7.854-4.488,14.436-10.688,18.157
		c-4.039,2.696-10.104,3.368-16.162,3.368h-28.957v-1.35v-2.694c-3.367,2.694-9.424,4.043-15.488,4.043h-91.578v-1.35v-14.139
		c0-2.02,0-2.02-2.022-2.02h-1.343v16.159v1.35h-30.304v-1.35v-16.833c-4.713,2.023-10.776,2.023-15.486,2.023h-3.37v8.754v6.734
		h-0.67h-0.674h-1.548h-34.143h-0.676l-8.44-9.74l-9.738,9.74h-59.257v-60.673v-5.319v-2.023h53.195h4.588h2.819l8.755,10.102
		l9.429-10.102h40.398c4.042,0,12.126,0.675,15.491,4.039v-2.016v-2.023h36.363c3.364,0,10.776,0.675,14.815,4.039v-2.016v-2.023
		h55.214v4.039c2.698-2.69,8.755-4.039,13.469-4.039h30.975v4.039c0,0,5.095-4.039,9.295-4.039
		C436.565,264.283,464.789,264.283,464.789,264.283 M420.379,322.868h21.542c6.738,0,11.454-2.02,14.144-4.717
		c2.693-2.69,4.039-6.057,4.039-10.099c0-0.874-0.087-1.661-0.207-2.417c-1.382-7.209-7.557-9.972-9.421-10.646
		c-2.037-0.716-4.262-1.079-7.206-1.079h-5.388h-0.669c-1.348,0-2.696,0-4.04-0.675c-2.023-0.668-2.698-1.342-2.698-3.363
		c0-1.345,0.675-2.694,1.352-3.368c1.346-0.674,2.69-0.674,4.713-0.674h0.674h5.385h14.816v-11.446h-22.222
		c-1.248,0-2.39,0.097-3.471,0.246c-9.032,1.717-12.691,7.497-12.691,13.898c0,14.812,12.797,14.139,23.568,14.812
		c2.02,0,3.365,0.675,4.039,1.347c0.673,0.675,1.347,2.016,1.347,3.365c0,1.348-0.675,2.693-1.347,3.367
		c-1.344,1.348-2.694,1.348-4.716,1.348H420.38v10.101 M376.606,322.868h21.55c11.445,0,17.507-4.717,17.507-14.816
		c0-4.713-1.347-8.08-3.368-10.101c-2.694-2.694-6.734-4.041-12.794-4.041h-6.061c-1.346,0-2.69,0-4.04-0.675
		c-1.347-0.668-2.69-1.342-2.69-3.363c0-1.345,0-2.694,1.343-3.368c1.347-0.674,2.697-0.674,4.716-0.674h20.872v-11.446h-22.22
		c-12.123,0-16.162,7.408-16.162,14.143c0,14.812,12.794,14.139,23.568,14.812c2.019,0,3.368,0.675,4.043,1.347
		c0.674,0.675,1.343,2.016,1.343,3.365c0,1.348-0.669,2.693-1.343,3.367c-1.348,1.348-2.699,1.348-4.715,1.348h-21.55v10.102
		 M332.166,322.868h37.709v-10.1H343.61v-9.428h25.589v-9.429H343.61v-8.755h26.265v-10.098h-37.709L332.166,322.868
		 M280.315,322.868h11.446v-17.506h12.12c4.039,0,6.736,0,8.079,2.016c2.023,2.023,2.023,6.734,2.023,9.432v6.059h11.446v-9.425
		c0-4.042-0.675-6.74-2.019-8.756c-0.674-1.347-2.694-2.698-6.062-4.04c3.368-1.348,8.081-5.389,8.081-12.795
		c0-5.387-2.693-8.755-6.058-10.777c-3.372-2.018-8.085-2.018-13.469-2.018h-25.587V322.868 M207.246,291.573l-2.514-2.742
		l-11.958-13.097h-43.77v47.135H192.1l14.814-15.49l0.628,0.724l0.045-0.05l12.882,14.816h22.133v-7.407v-4.041v-4.042v-2.016
		h13.469c10.097,0,19.525-2.696,19.525-16.163c0-1.762-0.205-3.313-0.558-4.709c-2.938-7.047-10.695-8.757-17.622-8.757h-35.688
		l-14.142,15.486L207.246,291.573 M464.789,248.115h-32.425c-1.754,0-3.457,0.205-5.084,0.554c-1.343-0.361-2.754-0.554-4.21-0.554
		h-30.975c-1.562,0-4.693,0.109-8.405,0.81c-1.592-0.525-3.296-0.81-5.064-0.81H323.41c-1.866,0-3.658,0.316-5.325,0.898
		c-3.944-0.752-7.408-0.898-9.49-0.898h-36.363c-1.831,0-3.593,0.305-5.234,0.867c-3.602-0.652-7.149-0.867-10.257-0.867h-40.398
		c-3.27,0-6.433,0.991-9.092,2.798c-2.655-1.805-5.816-2.798-9.092-2.798h-2.819h-4.588h-53.195
		c-8.929,0-16.168,7.239-16.168,16.168v2.023v5.319v60.673c0,8.929,7.239,16.168,16.168,16.168h59.257
		c3.264,0,6.426-0.987,9.089-2.796c2.655,1.804,5.815,2.796,9.089,2.796h0.676h34.143h1.548h0.674h0.67
		c3.315,0,6.396-0.997,8.961-2.709c2.735,2.12,6.169,3.381,9.896,3.381h30.304c0.568,0,1.13-0.029,1.683-0.086
		c0.554,0.057,1.115,0.086,1.683,0.086h91.578c2.597,0,6.185-0.184,10.087-0.924c1.688,0.598,3.507,0.924,5.401,0.924h28.957
		c6.778,0,16.676-0.613,24.788-5.859c10.476-6.42,17.065-17.377,18.15-30.174c0.038-0.304,0.071-0.608,0.1-0.916
		c0.059-0.667,0.078-1.333,0.055-1.996c0.007-0.251,0.01-0.515,0.01-0.792c0-5.649-1.2-11.462-3.365-16.565v-26.53
		c0-0.335-0.011-0.67-0.03-1.001v-1.022C480.958,255.353,473.719,248.115,464.789,248.115L464.789,248.115z M228.861,291.902h4.784
		c-4.276,2.852-7.116,7.685-7.207,13.188l-4.692-5.396L228.861,291.902L228.861,291.902z M165.172,291.902h20.47l6.692,7.33
		l-7.143,7.47h-20.019V291.902L165.172,291.902z"/>
	<path style="fill:#202121;" d="M474.607,435.057H37.393C16.775,435.057,0,418.282,0,397.661V114.336
		c0-20.62,16.775-37.394,37.393-37.394h437.212c20.619,0,37.393,16.775,37.393,37.394v31.459c0,4.466-3.618,8.084-8.084,8.084
		s-8.084-3.618-8.084-8.084v-31.459c0-11.704-9.522-21.226-21.225-21.226H37.393c-11.704,0-21.225,9.522-21.225,21.226v283.326
		c0,11.705,9.521,21.227,21.225,21.227h437.212c11.703,0,21.225-9.522,21.225-21.227V172.025c0-4.466,3.618-8.084,8.084-8.084
		c4.466,0,8.084,3.618,8.084,8.084v225.637C512,418.282,495.226,435.057,474.607,435.057z"/>
</g>
<g style="opacity:0.15;">
	<path style="fill:#202121;" d="M28.922,397.661V114.336c0-16.188,13.124-29.31,29.311-29.31h-20.84
		c-16.187,0-29.309,13.123-29.309,29.31v283.326c0,16.188,13.122,29.311,29.309,29.311h20.84
		C42.047,426.973,28.922,413.849,28.922,397.661z"/>
</g>
<g>
	<polygon style="fill:#FFFFFF;" points="80.318,221.858 95.134,221.858 87.728,203.005 	"/>
	<polygon style="fill:#FFFFFF;" points="159.106,285.156 159.106,293.911 184.021,293.911 184.021,303.341 159.106,303.341 
		159.106,313.444 186.713,313.444 199.508,299.299 187.387,285.156 	"/>
	<polygon style="fill:#FFFFFF;" points="353.71,203.005 345.629,221.858 361.12,221.858 	"/>
	<polygon style="fill:#FFFFFF;" points="231.158,318.826 231.158,280.444 213.648,299.299 	"/>
	<path style="fill:#FFFFFF;" d="M264.152,291.22c-0.674-4.04-3.37-6.063-7.412-6.063h-14.138v12.121h14.815
		C261.457,297.277,264.152,295.259,264.152,291.22z"/>
	<path style="fill:#FFFFFF;" d="M311.286,295.933c1.347-0.675,2.022-2.697,2.022-4.714c0.675-2.692-0.675-4.04-2.022-4.715
		c-1.343-0.674-3.366-0.674-5.384-0.674h-13.469v10.776h13.469C307.92,296.607,309.943,296.607,311.286,295.933z"/>
	<path style="fill:#FFFFFF;" d="M408.253,185.496v8.081l-4.039-8.081h-31.646v8.081l-4.042-8.081H325.43
		c-7.406,0-13.469,1.348-18.855,4.041v-4.041h-30.302v0.674v3.367c-3.366-2.693-7.405-4.041-12.794-4.041H155.066l-7.411,16.835
		l-7.406-16.835h-24.242h-10.102v8.081l-3.367-8.081h-0.674H72.912l-13.469,31.648l-15.486,34.342l-0.285,0.675h0.285H78.3h0.43
		l0.244-0.675l4.041-10.099h8.754l4.04,10.774h39.052v-0.675v-7.405l3.371,8.08h19.526l3.366-8.08v7.405v0.675h15.487h77.44h0.675
		v-17.509h1.348c1.345,0,1.345,0,1.345,2.021v14.813h48.484v-4.04c4.041,2.023,10.098,4.04,18.18,4.04h20.203l4.04-10.771h9.425
		l4.04,10.771h39.055v-6.733v-3.366l6.063,10.099h1.343h0.675h29.629v-65.991L408.253,185.496L408.253,185.496L408.253,185.496z
		 M179.979,242.063h-6.736h-4.039v-4.038v-33l-0.675,1.545v-0.018l-15.665,35.511h-0.495h-3.601h-5.827l-16.16-37.038v37.038
		h-22.894l-4.714-10.101H76.277l-4.715,10.101H59.726l19.922-47.137h16.833l18.853,45.115v-45.115h4.039h13.801l0.317,0.675h0.025
		l8.496,18.491l6.101,13.853l0.216-0.698l13.467-32.321h18.183L179.979,242.063L179.979,242.063z M226.444,205.026H200.18v8.754
		h25.589v9.426H200.18v9.43h26.264v10.098h-37.709v-47.808h37.709V205.026L226.444,205.026z M274.474,222.389
		c0.017,0.015,0.04,0.027,0.06,0.041c0.254,0.269,0.473,0.539,0.659,0.798c1.291,1.691,2.333,4.206,2.386,7.893
		c0.003,0.064,0.006,0.127,0.011,0.191c0,0.037,0.005,0.069,0.005,0.107c0,0.022-0.002,0.038-0.002,0.058
		c0.015,0.371,0.025,0.749,0.025,1.159v9.427h-10.099v-5.389c0-2.694,0-6.735-2.023-9.427c-0.636-0.636-1.281-1.056-1.98-1.354
		c-1.009-0.653-2.923-0.664-6.098-0.664h-12.123v16.835h-11.446v-47.137h25.589c6.057,0,10.099,0,13.467,2.02
		c3.301,1.981,5.292,5.268,5.369,10.471c-0.156,7.166-4.756,11.098-8.063,12.424C270.212,219.84,272.457,220.293,274.474,222.389z
		 M297.15,242.063h-11.448v-47.137h11.448V242.063z M428.458,242.063h-14.817l-21.547-35.691v29.629l-0.07-0.071v6.161h-11.376
		v-0.028h-11.447l-4.04-10.101h-23.57l-4.04,10.771h-12.795c-5.383,0-12.121-1.345-16.159-5.385
		c-4.041-4.04-6.059-9.427-6.059-18.18c0-6.734,1.344-13.472,6.059-18.857c3.364-4.043,9.427-5.386,16.833-5.386h10.776v10.1H325.43
		c-4.04,0-6.058,0.672-8.756,2.695c-2.018,2.019-3.365,6.059-3.365,10.771c0,5.388,0.675,8.755,3.365,11.447
		c2.024,2.023,4.716,2.697,8.081,2.697h4.714l15.487-37.035h6.736h10.099l18.857,45.115v-2.301v-15.209v-1.345V195.6h16.833
		l19.525,32.994V195.6h11.452L428.458,242.063L428.458,242.063z"/>
	<path style="fill:#FFFFFF;" d="M264.87,214.559c0.196-0.21,0.376-0.448,0.526-0.721c0.61-0.966,1.311-2.704,0.933-5.078
		c-0.016-0.218-0.055-0.419-0.101-0.614c-0.013-0.054-0.011-0.101-0.026-0.156l-0.005,0.001c-0.335-1.153-1.19-1.863-2.045-2.293
		c-1.348-0.672-3.37-0.672-5.388-0.672h-13.469v10.776h13.469c2.019,0,4.04,0,5.388-0.675c0.203-0.102,0.384-0.243,0.556-0.4
		l0.003,0.009C264.712,214.733,264.779,214.66,264.87,214.559z"/>
	<path style="fill:#FFFFFF;" d="M468.186,309.402c0-4.714-1.345-9.428-3.365-12.795v-30.301h-0.03v-2.023c0,0-28.226,0-32.425,0
		c-4.201,0-9.295,4.039-9.295,4.039v-4.039h-30.975c-4.715,0-10.771,1.348-13.469,4.039v-4.039h-55.214v2.023v2.016
		c-4.039-3.364-11.45-4.039-14.815-4.039h-36.363v2.023v2.016c-3.365-3.364-11.449-4.039-15.492-4.039h-40.398l-9.429,10.102
		l-8.755-10.102h-2.819h-4.588h-53.195v2.023v5.319v60.673h59.257l9.738-9.74l8.44,9.74h0.676h34.143h1.548h0.674h0.67v-6.734
		v-8.754h3.37c4.71,0,10.774,0,15.486-2.023v16.833v1.35h30.304v-1.35v-16.159h1.343c2.022,0,2.022,0,2.022,2.02v14.139v1.35h91.578
		c6.064,0,12.121-1.35,15.488-4.043v2.694v1.35h28.957c6.058,0,12.123-0.673,16.162-3.368c6.2-3.72,10.107-10.304,10.688-18.157
		c0.028-0.233,0.063-0.465,0.083-0.698l-0.04-0.038C468.167,310.273,468.186,309.841,468.186,309.402z M256.072,305.363h-13.469
		v2.016v4.042v4.041v7.407H220.47l-12.882-14.816l-0.045,0.05l-0.628-0.724l-14.814,15.49h-43.096v-47.135h43.77l11.958,13.097
		l2.514,2.742l0.342-0.354l14.142-15.486h35.688c6.928,0,14.683,1.71,17.622,8.757c0.352,1.396,0.558,2.947,0.558,4.709
		C275.598,302.667,266.169,305.363,256.072,305.363z M323.41,304.688c1.344,2.016,2.019,4.714,2.019,8.756v9.425h-11.446v-6.059
		c0-2.698,0-7.408-2.023-9.432c-1.343-2.016-4.04-2.016-8.079-2.016h-12.12v17.506h-11.446v-47.81h25.587
		c5.384,0,10.098,0,13.469,2.018c3.365,2.022,6.058,5.389,6.058,10.777c0,7.405-4.713,11.446-8.081,12.795
		C320.717,301.99,322.737,303.341,323.41,304.688z M369.875,285.156H343.61v8.755h25.589v9.429H343.61v9.428h26.265v10.1h-37.709
		v-47.81h37.709V285.156z M398.156,322.868h-21.55v-10.1h21.55c2.016,0,3.366,0,4.715-1.348c0.674-0.675,1.343-2.019,1.343-3.367
		c0-1.35-0.669-2.69-1.343-3.365c-0.675-0.673-2.024-1.347-4.043-1.347c-10.775-0.674-23.568,0-23.568-14.812
		c0-6.735,4.039-14.143,16.162-14.143h22.22v11.446H392.77c-2.019,0-3.368,0-4.716,0.674c-1.343,0.675-1.343,2.023-1.343,3.368
		c0,2.021,1.343,2.695,2.69,3.363c1.35,0.675,2.694,0.675,4.04,0.675h6.061c6.06,0,10.1,1.347,12.794,4.041
		c2.021,2.021,3.368,5.388,3.368,10.101C415.663,318.152,409.601,322.868,398.156,322.868z M456.065,318.152
		c-2.69,2.697-7.406,4.717-14.144,4.717h-21.542v-10.1h21.542c2.022,0,3.372,0,4.716-1.348c0.673-0.675,1.347-2.019,1.347-3.367
		c0-1.35-0.675-2.69-1.347-3.365c-0.674-0.673-2.019-1.347-4.039-1.347c-10.771-0.674-23.568,0-23.568-14.812
		c0-6.401,3.661-12.181,12.691-13.898c1.081-0.149,2.223-0.246,3.471-0.246h22.222v11.446h-14.816h-5.385h-0.674
		c-2.022,0-3.366,0-4.713,0.674c-0.677,0.675-1.352,2.023-1.352,3.368c0,2.021,0.675,2.695,2.698,3.363
		c1.344,0.675,2.691,0.675,4.04,0.675h0.669h5.388c2.943,0,5.169,0.363,7.206,1.079c1.864,0.675,8.039,3.437,9.421,10.646
		c0.12,0.756,0.207,1.544,0.207,2.417C460.104,312.095,458.757,315.462,456.065,318.152z"/>
</g>
<g>
</g>
<g>
</g>
<g>
</g>
<g>
</g>
<g>
</g>
<g>
</g>
<g>
</g>
<g>
</g>
<g>
</g>
<g>
</g>
<g>
</g>
<g>
</g>
<g>
</g>
<g>
</g>
<g>
</g>
</svg>
