<svg id="Capa_1" enable-background="new 0 0 504.5 504.5" height="512" viewBox="0 0 504.5 504.5" width="512" xmlns="http://www.w3.org/2000/svg"><g><path d="m445.124 504.5h-385.748c-16.569 0-30-13.431-30-30v-41.733l445.748-81v122.733c0 16.569-13.432 30-30 30z" fill="#cdbfba"/><path d="m363.51 474.5h-304.084c-16.596 0-30.05-13.454-30.05-30.05v-372.626c0-16.596 13.454-30.05 30.05-30.05h385.647c16.596 0 30.05 13.454 30.05 30.05v291.062c0 7.97-18.166 15.613-23.802 21.249l-66.563 66.563c-5.634 5.636-13.278 23.802-21.248 23.802z" fill="#f9f3f1"/><path d="m363.37 474.5c7.97 0 15.613-3.166 21.249-8.802l81.703-81.703c5.636-5.636 8.802-13.279 8.802-21.249v-12.174c0 13.598-11.023 24.621-24.621 24.621h-50.064c-13.598 0-24.621 11.023-24.621 24.621v50.064c0 13.598-11.023 24.621-24.621 24.621h12.173z" fill="#efe2dd"/><path d="m475.12 71.77v77.18h-445.74v-77.18c0-16.56 13.43-30 30-30h385.74c16.57 0 30 13.44 30 30z" fill="#fece85"/><g><g><path d="m114.3 94.133c-5.722 0-10.58-.003-14.72-.003-12.58 0-22.81-10.23-22.81-22.8v-29.56h15v29.56c0 4.3 3.5 7.8 7.81 7.8 4.14 0 18.86 15.003 14.72 15.003z" fill="#fdb441"/></g><g><path d="m386.757 94.133s-10.577-.003-14.727-.003c-12.57 0-22.8-10.23-22.8-22.8v-29.56h15v29.56c0 4.3 3.5 7.8 7.8 7.8 4.15 0 14.727 10.863 14.727 15.003z" fill="#fdb441"/></g></g><g><g><path d="m125.55 41.774v-18.967c0-4.305-3.502-7.807-7.807-7.807h-3.443c-4.305 0-7.807 3.502-7.807 7.807v48.52c0 4.305 3.502 7.807 7.807 7.807 4.142 0 7.5 3.358 7.5 7.5s-3.358 7.5-7.5 7.5c-12.576 0-22.807-10.231-22.807-22.807v-48.52c0-12.576 10.231-22.807 22.807-22.807h3.443c12.576 0 22.807 10.231 22.807 22.807v18.967z" fill="#554e56"/></g><g><path d="m398.007 41.774v-18.967c0-4.305-3.502-7.807-7.807-7.807h-3.443c-4.305 0-7.807 3.502-7.807 7.807v48.52c0 4.305 3.502 7.807 7.807 7.807 4.142 0 7.5 3.358 7.5 7.5s-3.358 7.5-7.5 7.5c-12.576 0-22.807-10.231-22.807-22.807v-48.52c0-12.576 10.231-22.807 22.807-22.807h3.443c12.576 0 22.807 10.231 22.807 22.807v18.967z" fill="#554e56"/></g></g><g fill="#fedba6"><g><path d="m117.233 243.939h-35.714c-3.945 0-7.143-3.198-7.143-7.143v-35.714c0-3.945 3.198-7.143 7.143-7.143h35.714c3.945 0 7.143 3.198 7.143 7.143v35.714c0 3.945-3.198 7.143-7.143 7.143z"/><path d="m219.149 243.939h-35.714c-3.945 0-7.143-3.198-7.143-7.143v-35.714c0-3.945 3.198-7.143 7.143-7.143h35.714c3.945 0 7.143 3.198 7.143 7.143v35.714c0 3.945-3.198 7.143-7.143 7.143z"/><path d="m321.065 243.939h-35.714c-3.945 0-7.143-3.198-7.143-7.143v-35.714c0-3.945 3.198-7.143 7.143-7.143h35.714c3.945 0 7.143 3.198 7.143 7.143v35.714c0 3.945-3.198 7.143-7.143 7.143z"/><path d="m422.981 243.939h-35.714c-3.945 0-7.143-3.198-7.143-7.143v-35.714c0-3.945 3.198-7.143 7.143-7.143h35.714c3.945 0 7.143 3.198 7.143 7.143v35.714c0 3.945-3.198 7.143-7.143 7.143z"/></g><g><path d="m117.233 336.712h-35.714c-3.945 0-7.143-3.198-7.143-7.143v-35.714c0-3.945 3.198-7.143 7.143-7.143h35.714c3.945 0 7.143 3.198 7.143 7.143v35.714c0 3.945-3.198 7.143-7.143 7.143z"/><path d="m219.149 336.712h-35.714c-3.945 0-7.143-3.198-7.143-7.143v-35.714c0-3.945 3.198-7.143 7.143-7.143h35.714c3.945 0 7.143 3.198 7.143 7.143v35.714c0 3.945-3.198 7.143-7.143 7.143z"/><path d="m321.065 336.712h-35.714c-3.945 0-7.143-3.198-7.143-7.143v-35.714c0-3.945 3.198-7.143 7.143-7.143h35.714c3.945 0 7.143 3.198 7.143 7.143v35.714c0 3.945-3.198 7.143-7.143 7.143z"/></g><path d="m422.981 338.939h-35.714c-3.945 0-7.143-3.198-7.143-7.143v-35.714c0-3.945 3.198-7.143 7.143-7.143h35.714c3.945 0 7.143 3.198 7.143 7.143v35.714c0 3.945-3.198 7.143-7.143 7.143z"/><g><path d="m117.233 429.485h-35.714c-3.945 0-7.143-3.198-7.143-7.143v-35.714c0-3.945 3.198-7.143 7.143-7.143h35.714c3.945 0 7.143 3.198 7.143 7.143v35.714c0 3.945-3.198 7.143-7.143 7.143z"/><path d="m219.149 429.485h-35.714c-3.945 0-7.143-3.198-7.143-7.143v-35.714c0-3.945 3.198-7.143 7.143-7.143h35.714c3.945 0 7.143 3.198 7.143 7.143v35.714c0 3.945-3.198 7.143-7.143 7.143z"/><path d="m321.065 429.485h-35.714c-3.945 0-7.143-3.198-7.143-7.143v-35.714c0-3.945 3.198-7.143 7.143-7.143h35.714c3.945 0 7.143 3.198 7.143 7.143v35.714c0 3.945-3.198 7.143-7.143 7.143z"/></g></g></g></svg>