<svg width="34" height="34" viewBox="0 0 34 34" fill="none" xmlns="http://www.w3.org/2000/svg">
<path d="M31.1667 28.3333V17.2465C31.1667 16.4751 31.0094 15.7119 30.7041 15.0035C30.3989 14.2951 29.9523 13.6565 29.3916 13.1268L18.9465 3.25549C18.4204 2.75814 17.7239 2.48102 17 2.48102C16.276 2.48102 15.5796 2.75814 15.0535 3.25549L4.60841 13.1268C4.04773 13.6565 3.60109 14.2951 3.29587 15.0035C2.99064 15.7119 2.83325 16.4751 2.83333 17.2465V28.3333C2.83333 29.0848 3.13184 29.8054 3.66319 30.3368C4.19455 30.8681 4.91521 31.1667 5.66666 31.1667H28.3333C29.0848 31.1667 29.8054 30.8681 30.3368 30.3368C30.8682 29.8054 31.1667 29.0848 31.1667 28.3333Z" stroke="black" stroke-width="2" stroke-linecap="round" stroke-linejoin="round"/>
</svg>
