<svg id="flat" height="512" viewBox="0 0 512 512" width="512" xmlns="http://www.w3.org/2000/svg"><path d="m408 256v96l-24 88-40 24v-168l-56.52 47.48-143.48 120.52-32-32 128.93-135.07 39.07-40.93z" fill="#ffceb6"/><path d="m408 160h48v-24a32 32 0 0 0 -32-32h-144a32 32 0 0 0 -32 32v24h32v96h128z" fill="#548aff"/><path d="m384 64v32a32 32 0 0 1 -32 32 32 32 0 0 1 -32-32v-32z" fill="#ffceb6"/><path d="m320 64v-16l25.6-19.2a23.99994 23.99994 0 0 1 14.4-4.8 24 24 0 0 1 24 24v16z" fill="#b1712c"/><path d="m296 160h-16v-16a8 8 0 0 1 8-8 8 8 0 0 1 8 8z" fill="#4f7ff7"/><path d="m424 160h-16v-16a8 8 0 0 1 8-8 8 8 0 0 1 8 8z" fill="#4f7ff7"/><path d="m344 464 40-24 40 32v16h-80z" fill="#e0edff"/><path d="m144 464-32-32-56 40v16h88z" fill="#e0edff"/><path d="m408 256v72h-64v-32l-56.52 47.48-46.55-46.55 39.07-40.93z" fill="#ffb401"/><path d="m456 160v33.64014a38.35969 38.35969 0 0 1 -67.48 24.96972l-25.51-29.75976-11.01-12.8501v-24h32l24 24v-16z" fill="#ffceb6"/><path d="m398.07 166.07007a28.17863 28.17863 0 0 1 -26.22 17.92993h-4.59l-4.25 4.8501-11.01-12.8501v-24h32z" fill="#ffbfa1"/><path d="m296 160h-48v33.47946a38.52055 38.52055 0 0 0 38.52054 38.52054h.00006a38.52052 38.52052 0 0 0 28.98966-13.15459l44.48974-50.84541h11.85137a12.14863 12.14863 0 0 0 12.14863-12.14863 25.42513 25.42513 0 0 0 -19.25863-24.666 25.42511 25.42511 0 0 0 -22.713 5.3618l-46.02837 39.45283z" fill="#ffceb6"/></svg>