<svg id="Layer_1" data-name="Layer 1" xmlns="http://www.w3.org/2000/svg" viewBox="0 0 17.72 30.4"><defs><style>.cls-1{fill-rule:evenodd;}</style></defs><path d="M9.87,7.28A1.42,1.42,0,1,1,7.26,6.16,9.15,9.15,0,0,1,15.72.8c4.81,0,9.14,3.63,9.14,8.59a8.56,8.56,0,0,1-5.18,7.73,4.23,4.23,0,0,0-2.54,3.94v1.61a1.42,1.42,0,1,1-2.83,0V21.06a7,7,0,0,1,4.21-6.52A5.72,5.72,0,0,0,22,9.39C22,6,19,3.64,15.72,3.64A6.29,6.29,0,0,0,9.87,7.28Z" transform="translate(-7.14 -0.8)"/><path class="cls-1" d="M15.73,26.86A2.17,2.17,0,1,1,13.55,29a2.17,2.17,0,0,1,2.18-2.17Z" transform="translate(-7.14 -0.8)"/></svg>