<svg width="24" height="25" viewBox="0 0 24 25" fill="none" xmlns="http://www.w3.org/2000/svg">
<path d="M23.71 1.29001C23.575 1.15569 23.4045 1.06268 23.2185 1.02194C23.0325 0.981196 22.8388 0.994405 22.66 1.06001L0.660001 9.06001C0.470269 9.13198 0.306921 9.25996 0.191652 9.42697C0.0763829 9.59397 0.0146484 9.79209 0.0146484 9.99501C0.0146484 10.1979 0.0763829 10.3961 0.191652 10.5631C0.306921 10.7301 0.470269 10.858 0.660001 10.93L10.26 14.77L14.1 24.37C14.1721 24.5514 14.2958 24.7077 14.4557 24.8197C14.6157 24.9316 14.8049 24.9943 15 25C15.2021 24.9959 15.3982 24.9306 15.5624 24.8128C15.7266 24.6949 15.8513 24.5301 15.92 24.34L23.92 2.34001C23.9881 2.16309 24.0046 1.97044 23.9674 1.78454C23.9302 1.59863 23.8409 1.42712 23.71 1.29001ZM15 21.2L12.21 14.2L17 9.41001L15.59 8.00001L10.76 12.83L3.8 10L21.33 3.67001L15 21.2Z" fill="black"/>
</svg>
