<svg width="27" height="24" viewBox="0 0 27 24" fill="none" xmlns="http://www.w3.org/2000/svg">
<path d="M16.0833 15.3647L25.0385 23.4532C25.1899 23.5899 25.3952 23.6668 25.6094 23.6668C25.8235 23.6668 26.0289 23.5899 26.1803 23.4532C26.3317 23.3164 26.4168 23.1309 26.4168 22.9375C26.4168 22.7441 26.3317 22.5586 26.1803 22.4218L1.96154 0.546825C1.88657 0.479107 1.79756 0.42539 1.6996 0.388741C1.60164 0.352092 1.49665 0.333229 1.39063 0.333229C1.2846 0.333229 1.17961 0.352092 1.08165 0.388741C0.983689 0.42539 0.894682 0.479107 0.819708 0.546825C0.668292 0.683589 0.583227 0.869079 0.583227 1.06249C0.583227 1.15826 0.604111 1.25309 0.644686 1.34157C0.685262 1.43005 0.744735 1.51044 0.819708 1.57816L6.54567 6.74999H3.8125C2.91325 6.74999 2.05083 7.07265 1.41497 7.64698C0.7791 8.22131 0.421875 9.00027 0.421875 9.81249V14.1875C0.421875 15.8792 1.93958 17.25 3.8125 17.25H6.84921C7.60567 17.25 8.33547 17.5024 8.89844 17.9587L14.1981 22.2556C14.926 22.8459 16.0833 22.3798 16.0833 21.4967V15.3647Z" fill="white"/>
<path d="M16.0833 11.2399L9.65149 5.42991L14.1982 1.74383C14.926 1.15466 16.0833 1.62075 16.0833 2.50391V11.2399Z" fill="white"/>
<path d="M21.3702 16.0145L20.1754 14.9353C20.6708 14.0216 20.928 13.0174 20.9271 12C20.9271 10.5545 20.4189 9.40416 19.9067 8.61199C19.651 8.21591 19.3965 7.91257 19.2092 7.71132C19.1217 7.617 19.0299 7.52592 18.9341 7.43832L18.9231 7.42899H18.9238C18.77 7.29661 18.6802 7.11481 18.6738 6.92302C18.6675 6.73122 18.7451 6.54489 18.8898 6.40443C19.0345 6.26396 19.2347 6.18068 19.4469 6.17265C19.6592 6.16461 19.8664 6.23246 20.0236 6.36149C20.1321 6.45832 20.0236 6.36149 20.0236 6.36149L20.0243 6.36266L20.0256 6.36324L20.0288 6.36616L20.0378 6.37374L20.065 6.39707C20.1978 6.51734 20.325 6.64268 20.446 6.77274C20.6817 7.02766 20.9924 7.39866 21.3017 7.87757C22.102 9.10947 22.5296 10.5098 22.5416 11.938C22.5536 13.3663 22.1497 14.7723 21.3702 16.0151V16.0145Z" fill="white"/>
<path d="M24.4842 18.8279L23.2927 17.7517C24.0728 16.389 24.8084 14.4541 24.8084 12C24.8084 9.37499 23.9663 7.34383 23.1293 5.97182C22.7983 5.42508 22.4154 4.90532 21.9849 4.41841C21.8386 4.25456 21.6845 4.09652 21.5231 3.94474L21.5024 3.92549L21.4985 3.92257C21.4219 3.85643 21.3604 3.77729 21.3176 3.68967C21.2748 3.60206 21.2515 3.50769 21.2491 3.41195C21.2441 3.21859 21.3245 3.03139 21.4724 2.89153C21.6203 2.75167 21.8237 2.67061 22.0377 2.66618C22.2518 2.66175 22.4591 2.73432 22.6139 2.86791C22.9019 3.14149 22.6145 2.86791 22.6145 2.86791L22.6152 2.86907L22.6171 2.87024L22.621 2.87374L22.6326 2.88424L22.6714 2.91866C22.7024 2.94782 22.7469 2.98866 22.8012 3.04174C22.9539 3.19088 23.1008 3.34478 23.2417 3.50316C23.7315 4.05633 24.1671 4.64694 24.5436 5.26832C25.4859 6.81241 26.423 9.08332 26.423 12C26.423 14.9167 25.4859 17.1876 24.5436 18.7317C24.5243 18.7643 24.5043 18.7958 24.4842 18.8279Z" fill="white"/>
</svg>
