<svg width="28" height="28" viewBox="0 0 28 28" fill="none" xmlns="http://www.w3.org/2000/svg">
<path d="M16.3333 17.3647L24.4218 25.4532C24.5586 25.5899 24.7441 25.6668 24.9375 25.6668C25.1309 25.6668 25.3164 25.5899 25.4532 25.4532C25.5899 25.3164 25.6668 25.1309 25.6668 24.9375C25.6668 24.7441 25.5899 24.5586 25.4532 24.4218L3.57817 2.54685C3.51045 2.47913 3.43006 2.42541 3.34158 2.38876C3.2531 2.35211 3.15827 2.33325 3.0625 2.33325C2.96673 2.33325 2.8719 2.35211 2.78342 2.38876C2.69494 2.42541 2.61455 2.47913 2.54683 2.54685C2.41007 2.68361 2.33324 2.8691 2.33324 3.06251C2.33324 3.15828 2.3521 3.25311 2.38875 3.34159C2.4254 3.43007 2.47912 3.51046 2.54683 3.57818L7.71867 8.75001H5.25C4.43777 8.75001 3.65882 9.07267 3.08449 9.647C2.51016 10.2213 2.1875 11.0003 2.1875 11.8125V16.1875C2.1875 17.8792 3.55833 19.25 5.25 19.25H7.99283C8.67609 19.25 9.33527 19.5024 9.84375 19.9588L14.6306 24.2556C15.288 24.8459 16.3333 24.3798 16.3333 23.4967V17.3647Z" fill="#242429"/>
<path d="M16.3333 13.2399L10.5239 7.42988L14.6306 3.7438C15.288 3.15463 16.3333 3.62072 16.3333 4.50388V13.2399Z" fill="#242429"/>
<path d="M21.1086 18.0145L20.0294 16.9353C20.4769 16.0215 20.7092 15.0174 20.7084 14C20.7084 12.5545 20.2494 11.4041 19.7868 10.612C19.5558 10.2159 19.3259 9.91257 19.1568 9.71132C19.0777 9.61699 18.9948 9.52591 18.9083 9.43832L18.8984 9.42898H18.8989C18.76 9.2966 18.6789 9.1148 18.6732 8.92301C18.6674 8.73122 18.7375 8.54489 18.8682 8.40442C18.9989 8.26396 19.1798 8.18068 19.3715 8.17264C19.5632 8.1646 19.7503 8.23245 19.8924 8.36148C19.9904 8.45832 19.8924 8.36148 19.8924 8.36148L19.8929 8.36265L19.8941 8.36323L19.897 8.36615L19.9052 8.37373L19.9297 8.39707C20.0497 8.51733 20.1645 8.64267 20.2739 8.77273C20.4868 9.02765 20.7674 9.39865 21.0468 9.87757C21.7696 11.1095 22.1558 12.5098 22.1667 13.938C22.1775 15.3663 21.8126 16.7723 21.1086 18.0151V18.0145Z" fill="#242429"/>
<path d="M23.9213 20.8279L22.8451 19.7517C23.5497 18.389 24.2141 16.4541 24.2141 14C24.2141 11.375 23.4535 9.34385 22.6975 7.97185C22.3985 7.4251 22.0527 6.90534 21.6638 6.41843C21.5317 6.25458 21.3925 6.09654 21.2467 5.94476L21.2281 5.92551L21.2246 5.9226C21.1553 5.85645 21.0998 5.77731 21.0611 5.6897C21.0224 5.60208 21.0014 5.50771 20.9992 5.41197C20.9948 5.21861 21.0673 5.03141 21.2009 4.89156C21.3345 4.7517 21.5182 4.67064 21.7116 4.66621C21.9049 4.66178 22.0921 4.73434 22.232 4.86793C22.4921 5.14151 22.2326 4.86793 22.2326 4.86793L22.2331 4.8691L22.2349 4.87026L22.2384 4.87376L22.2489 4.88426L22.2839 4.91868C22.3119 4.94785 22.3521 4.98868 22.4011 5.04176C22.5391 5.1909 22.6718 5.3448 22.799 5.50318C23.2414 6.05635 23.6349 6.64697 23.975 7.26835C24.8261 8.81243 25.6725 11.0833 25.6725 14C25.6725 16.9167 24.8261 19.1876 23.975 20.7317C23.9575 20.7643 23.9394 20.7959 23.9213 20.8279Z" fill="#242429"/>
</svg>
