<?xml version="1.0" encoding="iso-8859-1"?>
<!-- Generator: Adobe Illustrator 19.0.0, SVG Export Plug-In . SVG Version: 6.00 Build 0)  -->
<svg version="1.1" id="Capa_1" xmlns="http://www.w3.org/2000/svg" xmlns:xlink="http://www.w3.org/1999/xlink" x="0px" y="0px"
	 viewBox="0 0 36.1 36.1" style="enable-background:new 0 0 36.1 36.1;" xml:space="preserve">
<g>
	<g>
		<path d="M26.761,15.605c-0.271-0.086-0.624,0.217-0.778,0.681c-0.162,0.464-0.063,0.91,0.211,0.994
			c0.273,0.087,0.625-0.218,0.78-0.681C27.133,16.136,27.036,15.69,26.761,15.605z"/>
	</g>
</g>
<g>
	<g>
		<path d="M24.188,13.821c-0.125-0.082-0.325-0.121-0.599-0.121h-0.838l-0.302,1.467h0.988c0.257,0,0.46-0.06,0.611-0.179
			c0.148-0.119,0.246-0.302,0.3-0.55c0.009-0.045,0.013-0.087,0.021-0.125c0.002-0.036,0.008-0.071,0.008-0.106
			C24.377,14.03,24.315,13.902,24.188,13.821z"/>
	</g>
</g>
<g>
	<g>
		<polygon points="23.12,22.712 22.923,23.41 23.694,23.41 23.891,22.712 		"/>
	</g>
</g>
<g>
	<g>
		<path d="M23.887,20.014l-0.263,0.919c0,0,0.449-0.173,0.838-0.222c0.086-0.321,0.197-0.697,0.197-0.697H23.887z"/>
	</g>
</g>
<g>
	<g>
		<path d="M23.502,21.365l-0.265,0.961c0,0,0.5-0.246,0.84-0.267c0.101-0.37,0.199-0.694,0.199-0.694H23.502z"/>
	</g>
</g>
<g>
	<g>
		<path d="M16.309,15.517c-0.097-0.105-0.234-0.158-0.412-0.158c-0.235,0-0.426,0.083-0.576,0.248
			c-0.151,0.166-0.258,0.415-0.326,0.748c-0.009,0.051-0.017,0.103-0.023,0.152c-0.005,0.051-0.007,0.099-0.006,0.143
			c0,0.189,0.049,0.335,0.147,0.438c0.096,0.103,0.233,0.154,0.413,0.154c0.236,0,0.427-0.082,0.577-0.245
			c0.15-0.162,0.256-0.408,0.322-0.734c0.01-0.051,0.018-0.104,0.023-0.158c0.004-0.052,0.007-0.101,0.007-0.146
			C16.455,15.77,16.407,15.622,16.309,15.517z"/>
	</g>
</g>
<g>
	<g>
		<path d="M34.392,7.011l-8.515-0.002c-0.001,0-0.002,0-0.002,0c-0.009,0-0.015,0.001-0.021,0.001
			c-1.17,0.036-2.627,0.974-2.892,2.131l-0.757,3.347h-0.702l0.757-3.347c0.266-1.157,1.723-2.095,2.893-2.131
			c0.006,0,0.013-0.001,0.02-0.001h-3.404l-6.054-0.003c-0.015,0-0.03,0.001-0.046,0.002c-1.173,0.024-2.649,0.968-2.914,2.134
			l-0.757,3.347H11.18l0.756-3.347c0.265-1.165,1.742-2.11,2.915-2.134L7.037,7.006c-1.18,0-2.692,0.955-2.962,2.136L0.047,26.96
			C0.022,27.068,0.008,27.175,0,27.279v0.33c0.08,0.85,0.73,1.471,1.664,1.484h7.862c-1.161-0.018-1.884-0.968-1.618-2.136
			l0.935-4.136h0.82l-0.935,4.136c-0.266,1.169,0.457,2.118,1.617,2.136h9.51c-1.162-0.018-1.883-0.968-1.618-2.136l0.313-1.386
			h0.702l-0.313,1.386c-0.265,1.169,0.457,2.118,1.618,2.136h8.945c1.145-0.057,2.255-0.984,2.516-2.128l4.027-17.818
			C36.313,7.968,35.571,7.01,34.392,7.011z M7.514,17.473c-0.425,0.314-0.975,0.472-1.648,0.472c-0.634,0-1.098-0.161-1.394-0.484
			c-0.205-0.229-0.308-0.521-0.308-0.873c0-0.146,0.017-0.303,0.052-0.471l0.717-3.458h1.083l-0.708,3.418
			c-0.022,0.096-0.03,0.184-0.029,0.263c-0.001,0.175,0.042,0.318,0.13,0.43c0.128,0.167,0.336,0.25,0.627,0.25
			c0.333,0,0.607-0.081,0.82-0.246c0.213-0.163,0.352-0.394,0.414-0.696l0.71-3.418h1.077L8.34,16.118
			C8.22,16.705,7.943,17.154,7.514,17.473z M11.842,15.742l-0.42,2.103h-0.787l0.381-1.906c0.039-0.197,0.028-0.344-0.033-0.438
			c-0.059-0.095-0.173-0.142-0.338-0.142c-0.202,0-0.372,0.063-0.511,0.188c-0.139,0.126-0.231,0.301-0.276,0.524l-0.351,1.773H8.72
			l0.617-3.087h0.765l-0.087,0.445l0.109-0.127c0.249-0.265,0.55-0.397,0.905-0.397c0.322,0,0.554,0.094,0.7,0.282
			C11.872,15.149,11.911,15.408,11.842,15.742z M25.793,15.088c0.66-0.307,1.003-0.125,1.378,0.168l0.358-0.247l0.849-0.075
			l-0.64,2.91l-0.978-0.025l-0.144-0.167C24.139,18.708,24.892,15.505,25.793,15.088z M27.544,19.744l-0.176,0.606h-0.715
			c-0.273,0.015-0.412-0.087-0.426-0.313l-0.033-0.786h0.974l0.041,0.358c-0.007,0.092,0.049,0.135,0.164,0.135H27.544z
			 M21.889,12.843h2.223c0.426,0,0.755,0.098,0.984,0.288c0.227,0.192,0.34,0.468,0.34,0.828v0.011c0,0.068-0.005,0.146-0.012,0.229
			c-0.011,0.082-0.023,0.166-0.043,0.253c-0.098,0.476-0.325,0.858-0.676,1.149c-0.354,0.289-0.771,0.435-1.25,0.435h-1.192
			l-0.368,1.808h-1.031L21.889,12.843z M18.109,14.758h0.766l-0.087,0.445l0.107-0.127c0.248-0.265,0.551-0.397,0.905-0.397
			c0.32,0,0.553,0.094,0.699,0.282c0.141,0.188,0.182,0.448,0.113,0.781l-0.42,2.103h-0.787l0.381-1.906
			c0.039-0.197,0.03-0.344-0.031-0.438c-0.063-0.095-0.174-0.142-0.338-0.142c-0.202,0-0.372,0.063-0.512,0.188
			c-0.139,0.126-0.231,0.301-0.275,0.524l-0.352,1.773h-0.786L18.109,14.758z M17.865,19.657l-0.157,0.58H16.24
			c-0.169,0.254-0.377,0.373-0.628,0.358h-0.765l0.167-0.606h0.148c0.137,0,0.228-0.045,0.271-0.135l0.384-0.576h1.029l-0.215,0.379
			H17.865z M13.071,17.843h-0.846l0.663-3.085h0.848L13.071,17.843z M13.85,14.383h-0.855l0.159-0.75h0.856L13.85,14.383z
			 M14.162,16.539c0.009-0.079,0.02-0.154,0.034-0.225c0.102-0.502,0.315-0.9,0.645-1.193c0.329-0.295,0.727-0.443,1.192-0.443
			c0.382,0,0.684,0.107,0.905,0.32c0.221,0.214,0.332,0.504,0.332,0.871c0,0.063-0.005,0.136-0.013,0.214
			c-0.011,0.08-0.022,0.156-0.036,0.231c-0.098,0.493-0.311,0.887-0.642,1.175c-0.33,0.291-0.726,0.435-1.188,0.435
			c-0.382,0-0.683-0.105-0.904-0.314c-0.223-0.213-0.335-0.498-0.336-0.861C14.151,16.685,14.155,16.615,14.162,16.539z
			 M16.649,24.374h-1.655c-0.315,0-0.422-0.18-0.324-0.54l0.314-1.146h-0.676l0.171-0.632h0.677l0.165-0.606h-0.646l0.17-0.629
			h2.704l-0.172,0.629H16.29l-0.166,0.608h1.058l-0.172,0.63h-1.059l-0.246,0.897c-0.06,0.149,0.02,0.217,0.24,0.202h0.862
			L16.649,24.374z M21.009,22.573c-0.083,0.301-0.303,0.457-0.659,0.473h-0.47l-0.002,0.652c-0.009,0.102,0.086,0.156,0.281,0.156
			h0.44l-0.145,0.518h-1.058c-0.295,0.011-0.442-0.129-0.438-0.428l0.066-1.752h0.883l-0.018,0.381h0.235
			c0.119,0,0.178-0.039,0.178-0.113l0.07-0.247h0.732L21.009,22.573z M20.447,22.032h-1.939l-0.454,1.664
			c-0.026,0.088,0.01,0.135,0.109,0.135h0.382l-0.141,0.517h-0.97c-0.373,0-0.527-0.11-0.466-0.337l1.284-4.738h0.905l-0.041,0.369
			c0,0,0.511-0.383,0.973-0.383h1.712l-0.654,2.369C21.093,21.9,20.86,22.033,20.447,22.032z M24.593,24.083l-0.084,0.292h-1.001
			l0.084-0.292h-1.977l0.191-0.674h0.198l0.966-3.396h-0.199l0.204-0.719h1.034l-0.045,0.265c0,0,0.527-0.265,0.909-0.265
			c0.381,0,1.278,0,1.278,0l-0.203,0.719h-0.2l-0.966,3.396h0.201l-0.189,0.674H24.593z M28.877,21.202h-1.002l-0.173,0.606h1.002
			l-0.188,0.65h-1.115l-0.252,0.381h0.543l0.127,0.766c0.015,0.076,0.082,0.112,0.197,0.112h0.17l-0.179,0.63h-0.601
			c-0.31,0.016-0.47-0.087-0.484-0.314l-0.146-0.696L26.28,24.08c-0.116,0.21-0.299,0.308-0.541,0.292h-0.918l0.181-0.63h0.284
			c0.117,0,0.218-0.053,0.305-0.157l0.777-1.124h-1.004l0.188-0.65h1.087l0.174-0.605h-1.089l0.187-0.652h3.15L28.877,21.202z
			 M30.057,18.439c-0.324,0.694-0.635,1.098-0.818,1.286c-0.184,0.187-0.545,0.619-1.418,0.587l0.076-0.529
			c0.733-0.225,1.13-1.243,1.357-1.695l-0.27-3.322l0.565-0.008h0.475l0.051,2.084l0.894-2.084h0.904L30.057,18.439z"/>
	</g>
</g>
<g>
	<g>
		<path d="M18.804,20.954l-0.129,0.471h1.38c0.113,0.016,0.177-0.029,0.185-0.135l0.094-0.336H18.804z"/>
	</g>
</g>
<g>
	<g>
		<path d="M19.084,19.943l-0.183,0.639c0,0,0.254-0.183,0.678-0.19c0.425-0.006,0.909,0,0.909,0l0.123-0.449H19.084z"/>
	</g>
</g>
<g>
</g>
<g>
</g>
<g>
</g>
<g>
</g>
<g>
</g>
<g>
</g>
<g>
</g>
<g>
</g>
<g>
</g>
<g>
</g>
<g>
</g>
<g>
</g>
<g>
</g>
<g>
</g>
<g>
</g>
</svg>
