<?xml version="1.0" encoding="iso-8859-1"?>
<!-- Generator: Adobe Illustrator 19.0.0, SVG Export Plug-In . SVG Version: 6.00 Build 0)  -->
<svg version="1.1" id="Capa_1" xmlns="http://www.w3.org/2000/svg" xmlns:xlink="http://www.w3.org/1999/xlink" x="0px" y="0px"
	 viewBox="0 0 512 512" style="enable-background:new 0 0 512 512;" xml:space="preserve">
<linearGradient id="SVGID_1_" gradientUnits="userSpaceOnUse" x1="0" y1="258.0002" x2="512.0004" y2="258.0002" gradientTransform="matrix(1 0 0 -1 0 514.0004)">
	<stop  offset="0" style="stop-color:#80D8FF"/>
	<stop  offset="1" style="stop-color:#EA80FC"/>
</linearGradient>
<path style="fill:url(#SVGID_1_);" d="M256.001,274c-49.625,0-89.998,40.374-89.998,90s40.373,90,89.998,90s89.998-40.374,89.998-90
	S305.626,274,256.001,274z M256.001,414c-27.57,0-49.999-22.43-49.999-50s22.429-50,49.999-50S306,336.43,306,364
	S283.571,414,256.001,414z M501.01,343.494c-9.845,4.971-21.88,1.038-26.867-8.839C437.078,261.241,354.446,208,256.001,208
	c-98.371,0-181.045,53.177-218.143,126.654c-4.977,9.861-17.01,13.818-26.867,8.839c-9.86-4.979-13.818-17.007-8.84-26.868
	c22.058-43.689,57.014-80.7,101.112-107.081l-54.137-54.138c-7.81-7.811-7.81-20.474-0.001-28.284c7.81-7.811,20.474-7.811,28.285,0
	l63.511,63.513c29.934-12.389,62.064-19.841,95.079-21.986V78c0-11.046,8.954-20,20-20c11.046,0,20,8.954,20,20v90.65
	c33.015,2.145,65.145,9.597,95.079,21.986l63.511-63.513c7.812-7.81,20.474-7.81,28.285,0c7.809,7.811,7.809,20.474-0.001,28.284
	l-54.137,54.138c44.098,26.381,79.054,63.392,101.112,107.081C514.829,326.486,510.871,338.515,501.01,343.494z"/>
<g>
</g>
<g>
</g>
<g>
</g>
<g>
</g>
<g>
</g>
<g>
</g>
<g>
</g>
<g>
</g>
<g>
</g>
<g>
</g>
<g>
</g>
<g>
</g>
<g>
</g>
<g>
</g>
<g>
</g>
</svg>
